<svg xmlns="http://www.w3.org/2000/svg" width="1686.6015625" height="1310"><style>


/*to make the svg resizable*/ /*
.svg-container {
    display: inline-block;
    position: relative;
    width: 100%;
    /*padding-bottom: 100%; /* aspect ratio */ /*
    vertical-align: top;
    /*overflow: hidden;*/ /*
}

.svg-content-responsive {
    display: inline-block;
    position: absolute;
    top: 10px;
    left: 0;
} */ /*

svg {
  border: 1px solid #999;
  /*overflow: hidden;*/ /*
} */

.canvas {
  overflow: visible;
}
.canvas .wrapper.outer &gt; .background {
  fill: #FFFFFF;
}
.canvas .wrapper.inner &gt; .background {
  fill: #FFFFFF;
  cursor: move;
}
.canvas .background {
  fill: #FFFFFF;
  stroke: #333333;
  cursor: move;
}
.canvas .panCanvas {
  cursor: click;
}

.canvas .minimap {
  stroke: #000000; /* #111111 */
  stroke-width: 1px;
}

.canvas .minimap .frame {
  pointer-events: all;
}

.canvas .minimap .container {
  stroke: #000000; /* #111111 */
  /*stroke-width: 1px;*/
  /*border: 1px solid #999;*/
}

.canvas .minimap .frame .background {
  stroke: #FF0000; /* #111111 */
  stroke-width: 10px;
  fill-opacity: 0.1;   /*grey shade of mini-map*/
  fill: #FFFFFF; /* #FF0000 */
  /*fill: url(#minimapGradient_qwpyza); */
  filter: url(#minimapDropShadow_qwpyza);
  cursor: move;
  border: 1px solid #999;
}

/*
.cluster rect {
  stroke: #333;
  fill: #000;
  fill-opacity: 0.1;
  stroke-width: 1.5px;
}*/

h1, h2 {
  color: #333;
}

/*textarea {
  width: 800px;
}*/

text {
  font-family: sans-serif;
  font-size: 14px;
  /* no effect:
  text-align: center;
  word-wrap: break-word;
  width: 50px;
  max-width: 60px;
  */
}

.activityNameText {
    color:black;
    text-align: center;
}
.locationText {
    color: grey;
    text-align: center;
    /*font-weight:bold;*/
}
.edgeText {
    color:darkblue;
    text-align: center;
}

.node {
    fill: black;  /* text color of nodes*/
    /* no effect:
    white-space: nowrap;
    */
}

.node rect {
  stroke: #333;
  fill: #fff;
  stroke-width: 3px;
}

.node.demand {
  /*stroke: #333;  */
  font-weight: bold
}

.node.demand rect {
  stroke: darkblue;
  fill: #fff;
  stroke-width: 4px;
}

.node.market rect {
  stroke: #ed9736;
  fill: #fff;
  stroke-width: 3px;
}

.node.marketgroup rect {
  stroke: #ffc34c;
  fill: #fff;
  stroke-width: 3px;
}

.node.treatment rect {
  stroke: #f4425c;
  fill: #fff;
  stroke-width: 3px;
}

/* Edges */
/*.edgePath path.path {
  stroke: red;
  /*fill: darkred; /* Arrow head */
  /*lineInterpolate: basis;*/
/*}*/

.edgePath.impact path.path {
  stroke: red;
  opacity: 0.7;
}

.edgePath.benefit path.path {
  stroke: green;
  opacity: 0.7;
}

/* Arrowhead */
.edgePath path {
  stroke: none;
  /*fill: black;*/
  opacity: 0.3;
}
/*.edgePath marker {
  fill: darkgrey; /* Arrow head */
  /*opacity: 1;
}*/

.edgeLabel {
    fill: darkblue;  /* text color of edges*/
}




/*.label {
   /* text color*/
  /* no effect:
  margin-top: 30em;
fill: red;
  display: block;
  text-align: right;
  font: 20px sans-serif;
  background: #fffce2;
  padding: 200px; */
/*}

.edgeLabel {
   /* text color*/
  /* no effect:
  fill: red;
  margin-top: 30em;
  display: block;
  text-align: right;
  font: 20px sans-serif;
  background: #fffce2;
  padding: 200px; */
/*}*/

.error {
  color: red;
}

div.tooltip {
    position: absolute;
    text-align: left;
    width: auto;
    height: auto;
    padding: 2px;
    font: 12px sans-serif;
    background: #fffce2;
    border: 0px;
    border-radius: 8px;
    pointer-events: none;
    /*color: red;*/
}</style><g class="wrapper inner" clip-path="url(#wrapperClipPath_qwpyza)" transform="translate(0,0)" style="touch-action: none; -webkit-tap-highlight-color: rgba(0, 0, 0, 0);"><g class="panCanvas"><g class="output"><g class="clusters"/><g class="edgePaths"><g class="edgePath impact" style="opacity: 1;" stroke-width="10.052578086469431"><path class="path" d="M233.4140625,1128L233.4140625,1136.6666666666667C233.4140625,1145.3333333333333,233.4140625,1162.6666666666667,284.2571614583333,1183.0302436278528C335.1002604166667,1203.3938205890388,436.7864583333333,1226.7876411780778,487.6295572916667,1238.4845514725973L538.47265625,1250.1814617671166" marker-end="url(#arrowhead5876)" style="fill: none;"/><defs><marker id="arrowhead5876" viewBox="0 0 60 60" refX="9" refY="5" markerUnits="strokeWidth" markerWidth="8" markerHeight="6" orient="auto"><path d="M 0 0 L 10 5 L 0 10 z" style="stroke-width: 1; stroke-dasharray: 1, 0;"/></marker></defs></g><g class="edgePath impact" style="opacity: 1;" stroke-width="7.690160096317471"><path class="path" d="M628.96484375,1121L628.96484375,1130.8333333333333C628.96484375,1140.6666666666667,628.96484375,1160.3333333333333,628.96484375,1178.8333333333333C628.96484375,1197.3333333333333,628.96484375,1214.6666666666667,628.96484375,1223.3333333333333L628.96484375,1232" marker-end="url(#arrowhead5877)" style="fill: none;"/><defs><marker id="arrowhead5877" viewBox="0 0 60 60" refX="9" refY="5" markerUnits="strokeWidth" markerWidth="8" markerHeight="6" orient="auto"><path d="M 0 0 L 10 5 L 0 10 z" style="stroke-width: 1; stroke-dasharray: 1, 0;"/></marker></defs></g><g class="edgePath impact" style="opacity: 1;" stroke-width="20.30658903619084"><path class="path" d="M1142.4140625,1128L1142.4140625,1136.6666666666667C1142.4140625,1145.3333333333333,1142.4140625,1162.6666666666667,1071.9212239583333,1183.8269706260508C1001.4283854166666,1204.987274585435,860.4427083333334,1229.97454917087,789.9498697916666,1242.4681864635875L719.45703125,1254.961823756305" marker-end="url(#arrowhead5878)" style="fill: none;"/><defs><marker id="arrowhead5878" viewBox="0 0 60 60" refX="9" refY="5" markerUnits="strokeWidth" markerWidth="8" markerHeight="6" orient="auto"><path d="M 0 0 L 10 5 L 0 10 z" style="stroke-width: 1; stroke-dasharray: 1, 0;"/></marker></defs></g><g class="edgePath impact" style="opacity: 1;" stroke-width="3.7168285809707218"><path class="path" d="M935.390625,946L935.390625,954.6666666666666C935.390625,963.3333333333334,935.390625,980.6666666666666,955.1071428571428,998C974.8236607142857,1015.3333333333334,1014.2566964285714,1032.6666666666667,1033.9732142857142,1041.3333333333333L1053.689732142857,1050" marker-end="url(#arrowhead5879)" style="fill: none;"/><defs><marker id="arrowhead5879" viewBox="0 0 60 60" refX="9" refY="5" markerUnits="strokeWidth" markerWidth="8" markerHeight="6" orient="auto"><path d="M 0 0 L 10 5 L 0 10 z" style="stroke-width: 1; stroke-dasharray: 1, 0;"/></marker></defs></g><g class="edgePath impact" style="opacity: 1;" stroke-width="5.130585610818522"><path class="path" d="M1142.4140625,946L1142.4140625,954.6666666666666C1142.4140625,963.3333333333334,1142.4140625,980.6666666666666,1142.4140625,998C1142.4140625,1015.3333333333334,1142.4140625,1032.6666666666667,1142.4140625,1041.3333333333333L1142.4140625,1050" marker-end="url(#arrowhead5880)" style="fill: none;"/><defs><marker id="arrowhead5880" viewBox="0 0 60 60" refX="9" refY="5" markerUnits="strokeWidth" markerWidth="8" markerHeight="6" orient="auto"><path d="M 0 0 L 10 5 L 0 10 z" style="stroke-width: 1; stroke-dasharray: 1, 0;"/></marker></defs></g><g class="edgePath impact" style="opacity: 1;" stroke-width="11.459174844401597"><path class="path" d="M1460.68359375,946L1460.68359375,954.6666666666666C1460.68359375,963.3333333333334,1460.68359375,980.6666666666666,1422.599609375,1000.2223510929465C1384.515625,1019.7780355192263,1308.34765625,1041.5560710384525,1270.263671875,1052.4450887980656L1232.1796875,1063.3341065576788" marker-end="url(#arrowhead5881)" style="fill: none;"/><defs><marker id="arrowhead5881" viewBox="0 0 60 60" refX="9" refY="5" markerUnits="strokeWidth" markerWidth="8" markerHeight="6" orient="auto"><path d="M 0 0 L 10 5 L 0 10 z" style="stroke-width: 1; stroke-dasharray: 1, 0;"/></marker></defs></g><g class="edgePath impact" style="opacity: 1;" stroke-width="10.14556615639469"><path class="path" d="M1460.68359375,757L1460.68359375,766.8333333333334C1460.68359375,776.6666666666666,1460.68359375,796.3333333333334,1460.68359375,814.8333333333334C1460.68359375,833.3333333333334,1460.68359375,850.6666666666666,1460.68359375,859.3333333333334L1460.68359375,868" marker-end="url(#arrowhead5882)" style="fill: none;"/><defs><marker id="arrowhead5882" viewBox="0 0 60 60" refX="9" refY="5" markerUnits="strokeWidth" markerWidth="8" markerHeight="6" orient="auto"><path d="M 0 0 L 10 5 L 0 10 z" style="stroke-width: 1; stroke-dasharray: 1, 0;"/></marker></defs></g><g class="edgePath impact" style="opacity: 1;" stroke-width="10.14556615639469"><path class="path" d="M1460.68359375,547L1460.68359375,560.3333333333334C1460.68359375,573.6666666666666,1460.68359375,600.3333333333334,1460.68359375,624.6666666666666C1460.68359375,649,1460.68359375,671,1460.68359375,682L1460.68359375,693" marker-end="url(#arrowhead5883)" style="fill: none;"/><defs><marker id="arrowhead5883" viewBox="0 0 60 60" refX="9" refY="5" markerUnits="strokeWidth" markerWidth="8" markerHeight="6" orient="auto"><path d="M 0 0 L 10 5 L 0 10 z" style="stroke-width: 1; stroke-dasharray: 1, 0;"/></marker></defs></g><g class="edgePath impact" style="opacity: 1;" stroke-width="7.35415978186995"><path class="path" d="M1351.8125,337L1351.8125,348C1351.8125,359,1351.8125,381,1364.7733444940477,405.3333333333333C1377.7341889880954,429.6666666666667,1403.6558779761906,456.3333333333333,1416.6167224702383,469.6666666666667L1429.5775669642858,483" marker-end="url(#arrowhead5884)" style="fill: none;"/><defs><marker id="arrowhead5884" viewBox="0 0 60 60" refX="9" refY="5" markerUnits="strokeWidth" markerWidth="8" markerHeight="6" orient="auto"><path d="M 0 0 L 10 5 L 0 10 z" style="stroke-width: 1; stroke-dasharray: 1, 0;"/></marker></defs></g><g class="edgePath impact" style="opacity: 1;" stroke-width="2.2617927482399716"><path class="path" d="M1569.5546875,344L1569.5546875,353.8333333333333C1569.5546875,363.6666666666667,1569.5546875,383.3333333333333,1556.5938430059523,406.5C1543.6329985119046,429.6666666666667,1517.7113095238094,456.3333333333333,1504.7504650297617,469.6666666666667L1491.7896205357142,483" marker-end="url(#arrowhead5885)" style="fill: none;"/><defs><marker id="arrowhead5885" viewBox="0 0 60 60" refX="9" refY="5" markerUnits="strokeWidth" markerWidth="8" markerHeight="6" orient="auto"><path d="M 0 0 L 10 5 L 0 10 z" style="stroke-width: 1; stroke-dasharray: 1, 0;"/></marker></defs></g><g class="edgePath impact" style="opacity: 1;" stroke-width="5.0987847033181835"><path class="path" d="M136.9375,939L136.9375,948.8333333333334C136.9375,958.6666666666666,136.9375,978.3333333333334,146.12574404761904,996.8333333333334C155.3139880952381,1015.3333333333334,173.69047619047618,1032.6666666666667,182.8787202380952,1041.3333333333333L192.06696428571428,1050" marker-end="url(#arrowhead5886)" style="fill: none;"/><defs><marker id="arrowhead5886" viewBox="0 0 60 60" refX="9" refY="5" markerUnits="strokeWidth" markerWidth="8" markerHeight="6" orient="auto"><path d="M 0 0 L 10 5 L 0 10 z" style="stroke-width: 1; stroke-dasharray: 1, 0;"/></marker></defs></g><g class="edgePath impact" style="opacity: 1;" stroke-width="3.103083595240972"><path class="path" d="M329.890625,946L329.890625,954.6666666666666C329.890625,963.3333333333334,329.890625,980.6666666666666,320.70238095238096,998C311.5141369047619,1015.3333333333334,293.1376488095238,1032.6666666666667,283.94940476190476,1041.3333333333333L274.7611607142857,1050" marker-end="url(#arrowhead5887)" style="fill: none;"/><defs><marker id="arrowhead5887" viewBox="0 0 60 60" refX="9" refY="5" markerUnits="strokeWidth" markerWidth="8" markerHeight="6" orient="auto"><path d="M 0 0 L 10 5 L 0 10 z" style="stroke-width: 1; stroke-dasharray: 1, 0;"/></marker></defs></g><g class="edgePath impact" style="opacity: 1;" stroke-width="4.000005629842638"><path class="path" d="M524.015625,939L524.015625,948.8333333333334C524.015625,958.6666666666666,524.015625,978.3333333333334,535.3562914949633,998C546.6969579899268,1017.6666666666666,569.3782909798534,1037.3333333333333,580.7189574748169,1047.1666666666667L592.0596239697802,1057" marker-end="url(#arrowhead5888)" style="fill: none;"/><defs><marker id="arrowhead5888" viewBox="0 0 60 60" refX="9" refY="5" markerUnits="strokeWidth" markerWidth="8" markerHeight="6" orient="auto"><path d="M 0 0 L 10 5 L 0 10 z" style="stroke-width: 1; stroke-dasharray: 1, 0;"/></marker></defs></g><g class="edgePath impact" style="opacity: 1;" stroke-width="2.1174200864265966"><path class="path" d="M733.9140625,939L733.9140625,948.8333333333334C733.9140625,958.6666666666666,733.9140625,978.3333333333334,722.5733960050366,998C711.2327295100732,1017.6666666666666,688.5513965201466,1037.3333333333333,677.2107300251831,1047.1666666666667L665.8700635302198,1057" marker-end="url(#arrowhead5889)" style="fill: none;"/><defs><marker id="arrowhead5889" viewBox="0 0 60 60" refX="9" refY="5" markerUnits="strokeWidth" markerWidth="8" markerHeight="6" orient="auto"><path d="M 0 0 L 10 5 L 0 10 z" style="stroke-width: 1; stroke-dasharray: 1, 0;"/></marker></defs></g><g class="edgePath impact" style="opacity: 1;" stroke-width="2.398716906735148"><path class="path" d="M1053.26171875,764L1053.26171875,772.6666666666666C1053.26171875,781.3333333333334,1053.26171875,798.6666666666666,1061.752418154762,816C1070.2431175595239,833.3333333333334,1087.2245163690475,850.6666666666666,1095.7152157738094,859.3333333333334L1104.2059151785713,868" marker-end="url(#arrowhead5890)" style="fill: none;"/><defs><marker id="arrowhead5890" viewBox="0 0 60 60" refX="9" refY="5" markerUnits="strokeWidth" markerWidth="8" markerHeight="6" orient="auto"><path d="M 0 0 L 10 5 L 0 10 z" style="stroke-width: 1; stroke-dasharray: 1, 0;"/></marker></defs></g><g class="edgePath impact" style="opacity: 1;" stroke-width="2.3245025198722944"><path class="path" d="M1255.69921875,764L1255.69921875,772.6666666666666C1255.69921875,781.3333333333334,1255.69921875,798.6666666666666,1244.91015625,816C1234.12109375,833.3333333333334,1212.54296875,850.6666666666666,1201.75390625,859.3333333333334L1190.96484375,868" marker-end="url(#arrowhead5891)" style="fill: none;"/><defs><marker id="arrowhead5891" viewBox="0 0 60 60" refX="9" refY="5" markerUnits="strokeWidth" markerWidth="8" markerHeight="6" orient="auto"><path d="M 0 0 L 10 5 L 0 10 z" style="stroke-width: 1; stroke-dasharray: 1, 0;"/></marker></defs></g><g class="edgePath impact" style="opacity: 1;" stroke-width="5.0987847033181835"><path class="path" d="M136.9375,757L136.9375,766.8333333333334C136.9375,776.6666666666666,136.9375,796.3333333333334,136.9375,816C136.9375,835.6666666666666,136.9375,855.3333333333334,136.9375,865.1666666666666L136.9375,875" marker-end="url(#arrowhead5892)" style="fill: none;"/><defs><marker id="arrowhead5892" viewBox="0 0 60 60" refX="9" refY="5" markerUnits="strokeWidth" markerWidth="8" markerHeight="6" orient="auto"><path d="M 0 0 L 10 5 L 0 10 z" style="stroke-width: 1; stroke-dasharray: 1, 0;"/></marker></defs></g><g class="edgePath impact" style="opacity: 1;" stroke-width="4.243397782537995"><path class="path" d="M136.9375,554L136.9375,566.1666666666666C136.9375,578.3333333333334,136.9375,602.6666666666666,136.9375,625.8333333333334C136.9375,649,136.9375,671,136.9375,682L136.9375,693" marker-end="url(#arrowhead5893)" style="fill: none;"/><defs><marker id="arrowhead5893" viewBox="0 0 60 60" refX="9" refY="5" markerUnits="strokeWidth" markerWidth="8" markerHeight="6" orient="auto"><path d="M 0 0 L 10 5 L 0 10 z" style="stroke-width: 1; stroke-dasharray: 1, 0;"/></marker></defs></g><g class="edgePath impact" style="opacity: 1;" stroke-width="0.46240304751592015"><path class="path" d="M73.5234375,337L73.5234375,348C73.5234375,359,73.5234375,381,80.41216750372024,404.1666666666667C87.30089750744048,427.3333333333333,101.07835751488096,451.6666666666667,107.9670875186012,463.8333333333333L114.85581752232143,476" marker-end="url(#arrowhead5894)" style="fill: none;"/><defs><marker id="arrowhead5894" viewBox="0 0 60 60" refX="9" refY="5" markerUnits="strokeWidth" markerWidth="8" markerHeight="6" orient="auto"><path d="M 0 0 L 10 5 L 0 10 z" style="stroke-width: 1; stroke-dasharray: 1, 0;"/></marker></defs></g><g class="edgePath impact" style="opacity: 1;" stroke-width="2.69253772197678"><path class="path" d="M484.9037388392857,337L468.8104073660714,348C452.71707589285717,359,420.5304129464286,381,377.12658110119054,404.1666666666667C333.72274925595235,427.3333333333333,279.10174851190476,451.6666666666667,251.79124813988093,463.8333333333333L224.48074776785714,476" marker-end="url(#arrowhead5895)" style="fill: none;"/><defs><marker id="arrowhead5895" viewBox="0 0 60 60" refX="9" refY="5" markerUnits="strokeWidth" markerWidth="8" markerHeight="6" orient="auto"><path d="M 0 0 L 10 5 L 0 10 z" style="stroke-width: 1; stroke-dasharray: 1, 0;"/></marker></defs></g><g class="edgePath impact" style="opacity: 1;" stroke-width="2.780561442132842"><path class="path" d="M73.5234375,134L73.5234375,142.66666666666666C73.5234375,151.33333333333334,73.5234375,168.66666666666666,73.5234375,187.16666666666666C73.5234375,205.66666666666666,73.5234375,225.33333333333334,73.5234375,235.16666666666666L73.5234375,245" marker-end="url(#arrowhead5896)" style="fill: none;"/><defs><marker id="arrowhead5896" viewBox="0 0 60 60" refX="9" refY="5" markerUnits="strokeWidth" markerWidth="8" markerHeight="6" orient="auto"><path d="M 0 0 L 10 5 L 0 10 z" style="stroke-width: 1; stroke-dasharray: 1, 0;"/></marker></defs></g><g class="edgePath impact" style="opacity: 1;" stroke-width="4.000005629842639"><path class="path" d="M524.015625,757L524.015625,766.8333333333334C524.015625,776.6666666666666,524.015625,796.3333333333334,524.015625,816C524.015625,835.6666666666666,524.015625,855.3333333333334,524.015625,865.1666666666666L524.015625,875" marker-end="url(#arrowhead5897)" style="fill: none;"/><defs><marker id="arrowhead5897" viewBox="0 0 60 60" refX="9" refY="5" markerUnits="strokeWidth" markerWidth="8" markerHeight="6" orient="auto"><path d="M 0 0 L 10 5 L 0 10 z" style="stroke-width: 1; stroke-dasharray: 1, 0;"/></marker></defs></g><g class="edgePath impact" style="opacity: 1;" stroke-width="3.103083595240972"><path class="path" d="M329.890625,764L329.890625,772.6666666666666C329.890625,781.3333333333334,329.890625,798.6666666666666,329.890625,816C329.890625,833.3333333333334,329.890625,850.6666666666666,329.890625,859.3333333333334L329.890625,868" marker-end="url(#arrowhead5898)" style="fill: none;"/><defs><marker id="arrowhead5898" viewBox="0 0 60 60" refX="9" refY="5" markerUnits="strokeWidth" markerWidth="8" markerHeight="6" orient="auto"><path d="M 0 0 L 10 5 L 0 10 z" style="stroke-width: 1; stroke-dasharray: 1, 0;"/></marker></defs></g><g class="edgePath impact" style="opacity: 1;" stroke-width="2.398716906735148"><path class="path" d="M1053.26171875,568L1053.26171875,577.8333333333334C1053.26171875,587.6666666666666,1053.26171875,607.3333333333334,1053.26171875,627C1053.26171875,646.6666666666666,1053.26171875,666.3333333333334,1053.26171875,676.1666666666666L1053.26171875,686" marker-end="url(#arrowhead5899)" style="fill: none;"/><defs><marker id="arrowhead5899" viewBox="0 0 60 60" refX="9" refY="5" markerUnits="strokeWidth" markerWidth="8" markerHeight="6" orient="auto"><path d="M 0 0 L 10 5 L 0 10 z" style="stroke-width: 1; stroke-dasharray: 1, 0;"/></marker></defs></g><g class="edgePath impact" style="opacity: 1;" stroke-width="2.324502519872294"><path class="path" d="M1255.69921875,554L1255.69921875,566.1666666666666C1255.69921875,578.3333333333334,1255.69921875,602.6666666666666,1255.69921875,624.6666666666666C1255.69921875,646.6666666666666,1255.69921875,666.3333333333334,1255.69921875,676.1666666666666L1255.69921875,686" marker-end="url(#arrowhead5900)" style="fill: none;"/><defs><marker id="arrowhead5900" viewBox="0 0 60 60" refX="9" refY="5" markerUnits="strokeWidth" markerWidth="8" markerHeight="6" orient="auto"><path d="M 0 0 L 10 5 L 0 10 z" style="stroke-width: 1; stroke-dasharray: 1, 0;"/></marker></defs></g><g class="edgePath impact" style="opacity: 1;" stroke-width="2.117420086426596"><path class="path" d="M733.9140625,764L733.9140625,772.6666666666666C733.9140625,781.3333333333334,733.9140625,798.6666666666666,733.9140625,817.1666666666666C733.9140625,835.6666666666666,733.9140625,855.3333333333334,733.9140625,865.1666666666666L733.9140625,875" marker-end="url(#arrowhead5901)" style="fill: none;"/><defs><marker id="arrowhead5901" viewBox="0 0 60 60" refX="9" refY="5" markerUnits="strokeWidth" markerWidth="8" markerHeight="6" orient="auto"><path d="M 0 0 L 10 5 L 0 10 z" style="stroke-width: 1; stroke-dasharray: 1, 0;"/></marker></defs></g><g class="edgePath impact" style="opacity: 1;" stroke-width="0.15287155809865466"><path class="path" d="M147.046875,303.46932450017744L244.85807291666666,320.05777041681455C342.6692708333333,336.6462163334516,538.2916666666666,369.82310816672583,636.1028645833334,405.0782207500295C733.9140625,440.3333333333333,733.9140625,477.6666666666667,733.9140625,515C733.9140625,552.3333333333334,733.9140625,589.6666666666666,733.9140625,618.1666666666666C733.9140625,646.6666666666666,733.9140625,666.3333333333334,733.9140625,676.1666666666666L733.9140625,686" marker-end="url(#arrowhead5902)" style="fill: none;"/><defs><marker id="arrowhead5902" viewBox="0 0 60 60" refX="9" refY="5" markerUnits="strokeWidth" markerWidth="8" markerHeight="6" orient="auto"><path d="M 0 0 L 10 5 L 0 10 z" style="stroke-width: 1; stroke-dasharray: 1, 0;"/></marker></defs></g></g><g class="edgeLabels"><g class="edgeLabel" transform="translate(303.3984375,1180)" style="opacity: 1;"><g transform="translate(-64.984375,-22)" class="label"><text><tspan xml:space="preserve" dy="1em" x="1">Paper Products Total</tspan><tspan xml:space="preserve" dy="1em" x="1">2.1</tspan><tspan xml:space="preserve" dy="1em" x="1">(25.1%)</tspan></text></g></g><g class="edgeLabel" transform="translate(698.92578125,1180)" style="opacity: 1;"><g transform="translate(-64.9609375,-15)" class="label"><text><tspan xml:space="preserve" dy="1em" x="1">Wood Products Total</tspan><tspan xml:space="preserve" dy="1em" x="1">(19.2%)</tspan></text></g></g><g class="edgeLabel" transform="translate(1227.1796875,1180)" style="opacity: 1;"><g transform="translate(-79.765625,-22)" class="label"><text><tspan xml:space="preserve" dy="1em" x="1">Power and Heat Products</tspan><tspan xml:space="preserve" dy="1em" x="1">Total</tspan><tspan xml:space="preserve" dy="1em" x="1">(50.8%)</tspan></text></g></g><g class="edgeLabel" transform="translate(1004.8359375,998)" style="opacity: 1;"><g transform="translate(-64.4453125,-22)" class="label"><text><tspan xml:space="preserve" dy="1em" x="1">0 Power from &gt;50kw</tspan><tspan xml:space="preserve" dy="1em" x="1">(Heizkraft)</tspan><tspan xml:space="preserve" dy="1em" x="1">(9.29%)</tspan></text></g></g><g class="edgeLabel" transform="translate(1206.8046875,998)" style="opacity: 1;"><g transform="translate(-59.390625,-22)" class="label"><text><tspan xml:space="preserve" dy="1em" x="1">0 Heat from &gt;50kw</tspan><tspan xml:space="preserve" dy="1em" x="1">(Waermeerzeuger)</tspan><tspan xml:space="preserve" dy="1em" x="1">(12.8%)</tspan></text></g></g><g class="edgeLabel" transform="translate(1526.87890625,998)" style="opacity: 1;"><g transform="translate(-61.1953125,-22)" class="label"><text><tspan xml:space="preserve" dy="1em" x="1">Private Combustion</tspan><tspan xml:space="preserve" dy="1em" x="1">&lt;50kw Bavaria</tspan><tspan xml:space="preserve" dy="1em" x="1">(28.6%)</tspan></text></g></g><g class="edgeLabel" transform="translate(1540.09765625,816)" style="opacity: 1;"><g transform="translate(-74.4140625,-15)" class="label"><text><tspan xml:space="preserve" dy="1em" x="1">Mixed Logs Mix Bavaria</tspan><tspan xml:space="preserve" dy="1em" x="1">(25.4%)</tspan></text></g></g><g class="edgeLabel" transform="translate(1514.81640625,627)" style="opacity: 1;"><g transform="translate(-49.1328125,-15)" class="label"><text><tspan xml:space="preserve" dy="1em" x="1">Mixed Logs Mix</tspan><tspan xml:space="preserve" dy="1em" x="1">(25.4%)</tspan></text></g></g><g class="edgeLabel" transform="translate(1412.8359375,403)" style="opacity: 1;"><g transform="translate(-56.0234375,-29)" class="label"><text><tspan xml:space="preserve" dy="1em" x="1">heat, central or</tspan><tspan xml:space="preserve" dy="1em" x="1">small-scale, other</tspan><tspan xml:space="preserve" dy="1em" x="1">than natural gas</tspan><tspan xml:space="preserve" dy="1em" x="1">(18.4%)</tspan></text></g></g><g class="edgeLabel" transform="translate(1630.578125,403)" style="opacity: 1;"><g transform="translate(-56.0234375,-29)" class="label"><text><tspan xml:space="preserve" dy="1em" x="1">heat, central or</tspan><tspan xml:space="preserve" dy="1em" x="1">small-scale, other</tspan><tspan xml:space="preserve" dy="1em" x="1">than natural gas</tspan><tspan xml:space="preserve" dy="1em" x="1">(5.65%)</tspan></text></g></g><g class="edgeLabel" transform="translate(213.6328125,998)" style="opacity: 1;"><g transform="translate(-71.6953125,-15)" class="label"><text><tspan xml:space="preserve" dy="1em" x="1">Cardboard Mix Bavaria</tspan><tspan xml:space="preserve" dy="1em" x="1">(12.7%)</tspan></text></g></g><g class="edgeLabel" transform="translate(386.1484375,998)" style="opacity: 1;"><g transform="translate(-51.2578125,-22)" class="label"><text><tspan xml:space="preserve" dy="1em" x="1">Graphical Paper</tspan><tspan xml:space="preserve" dy="1em" x="1">Mix Bavaria</tspan><tspan xml:space="preserve" dy="1em" x="1">(7.76%)</tspan></text></g></g><g class="edgeLabel" transform="translate(601.8828125,998)" style="opacity: 1;"><g transform="translate(-72.8671875,-15)" class="label"><text><tspan xml:space="preserve" dy="1em" x="1">Sawnwood Mix Bavaria</tspan><tspan xml:space="preserve" dy="1em" x="1">(10.0%)</tspan></text></g></g><g class="edgeLabel" transform="translate(805.9453125,998)" style="opacity: 1;"><g transform="translate(-67.03125,-15)" class="label"><text><tspan xml:space="preserve" dy="1em" x="1">Particleboard Bavaria</tspan><tspan xml:space="preserve" dy="1em" x="1">(5.29%)</tspan></text></g></g><g class="edgeLabel" transform="translate(1130.12890625,816)" style="opacity: 1;"><g transform="translate(-71.8671875,-22)" class="label"><text><tspan xml:space="preserve" dy="1em" x="1">1 Heat Post-Consumer</tspan><tspan xml:space="preserve" dy="1em" x="1">Bavaria</tspan><tspan xml:space="preserve" dy="1em" x="1">(6.00%)</tspan></text></g></g><g class="edgeLabel" transform="translate(1321.26953125,816)" style="opacity: 1;"><g transform="translate(-60.5703125,-22)" class="label"><text><tspan xml:space="preserve" dy="1em" x="1">1 Heat Wood Chips</tspan><tspan xml:space="preserve" dy="1em" x="1">Mix Bavaria</tspan><tspan xml:space="preserve" dy="1em" x="1">(5.81%)</tspan></text></g></g><g class="edgeLabel" transform="translate(188.3515625,816)" style="opacity: 1;"><g transform="translate(-46.4140625,-15)" class="label"><text><tspan xml:space="preserve" dy="1em" x="1">Cardboard Mix</tspan><tspan xml:space="preserve" dy="1em" x="1">(12.7%)</tspan></text></g></g><g class="edgeLabel" transform="translate(191.0859375,627)" style="opacity: 1;"><g transform="translate(-49.1484375,-22)" class="label"><text><tspan xml:space="preserve" dy="1em" x="1">containerboard,</tspan><tspan xml:space="preserve" dy="1em" x="1">fluting medium</tspan><tspan xml:space="preserve" dy="1em" x="1">(10.6%)</tspan></text></g></g><g class="edgeLabel" transform="translate(131.9375,403)" style="opacity: 1;"><g transform="translate(-53.4140625,-22)" class="label"><text><tspan xml:space="preserve" dy="1em" x="1">transport, freight,</tspan><tspan xml:space="preserve" dy="1em" x="1">lorry, unspecified</tspan><tspan xml:space="preserve" dy="1em" x="1">(1.16%)</tspan></text></g></g><g class="edgeLabel" transform="translate(442.4921875,403)" style="opacity: 1;"><g transform="translate(-49.1484375,-22)" class="label"><text><tspan xml:space="preserve" dy="1em" x="1">containerboard,</tspan><tspan xml:space="preserve" dy="1em" x="1">fluting medium</tspan><tspan xml:space="preserve" dy="1em" x="1">(6.73%)</tspan></text></g></g><g class="edgeLabel" transform="translate(131.9375,186)" style="opacity: 1;"><g transform="translate(-53.4140625,-22)" class="label"><text><tspan xml:space="preserve" dy="1em" x="1">transport, freight,</tspan><tspan xml:space="preserve" dy="1em" x="1">lorry, unspecified</tspan><tspan xml:space="preserve" dy="1em" x="1">(6.95%)</tspan></text></g></g><g class="edgeLabel" transform="translate(576.59375,816)" style="opacity: 1;"><g transform="translate(-47.578125,-15)" class="label"><text><tspan xml:space="preserve" dy="1em" x="1">Sawnwood Mix</tspan><tspan xml:space="preserve" dy="1em" x="1">(10.0%)</tspan></text></g></g><g class="edgeLabel" transform="translate(386.1484375,816)" style="opacity: 1;"><g transform="translate(-51.2578125,-22)" class="label"><text><tspan xml:space="preserve" dy="1em" x="1">Graphical Paper</tspan><tspan xml:space="preserve" dy="1em" x="1">Mix</tspan><tspan xml:space="preserve" dy="1em" x="1">(7.76%)</tspan></text></g></g><g class="edgeLabel" transform="translate(1108.96484375,627)" style="opacity: 1;"><g transform="translate(-50.703125,-29)" class="label"><text><tspan xml:space="preserve" dy="1em" x="1">heat, district or</tspan><tspan xml:space="preserve" dy="1em" x="1">industrial, other</tspan><tspan xml:space="preserve" dy="1em" x="1">than natural gas</tspan><tspan xml:space="preserve" dy="1em" x="1">(6.00%)</tspan></text></g></g><g class="edgeLabel" transform="translate(1315.43359375,627)" style="opacity: 1;"><g transform="translate(-54.734375,-22)" class="label"><text><tspan xml:space="preserve" dy="1em" x="1">Heat Wood Chips</tspan><tspan xml:space="preserve" dy="1em" x="1">Forest Mix</tspan><tspan xml:space="preserve" dy="1em" x="1">(5.81%)</tspan></text></g></g><g class="edgeLabel" transform="translate(812.1875,816)" style="opacity: 1;"><g transform="translate(-73.2734375,-15)" class="label"><text><tspan xml:space="preserve" dy="1em" x="1">particleboard, uncoated</tspan><tspan xml:space="preserve" dy="1em" x="1">(5.29%)</tspan></text></g></g><g class="edgeLabel" transform="translate(792.328125,515)" style="opacity: 1;"><g transform="translate(-53.4140625,-22)" class="label"><text><tspan xml:space="preserve" dy="1em" x="1">transport, freight,</tspan><tspan xml:space="preserve" dy="1em" x="1">lorry, unspecified</tspan><tspan xml:space="preserve" dy="1em" x="1">(0.382%)</tspan></text></g></g></g><g class="nodes"><g class="node demand" id="09f0b23a200b4a8d8b0fca813721a5aa" transform="translate(628.96484375,1271)" style="opacity: 1;"><rect rx="0" ry="0" x="-90.4921875" y="-39" width="180.984375" height="78" style="fill: rgb(255, 255, 255);"/><g class="label" transform="translate(0,0)"><g transform="translate(-80.4921875,-29)"><text><tspan xml:space="preserve" dy="1em" x="1">0 Wood Based Products</tspan><tspan xml:space="preserve" dy="1em" x="1">Total</tspan><tspan xml:space="preserve" dy="1em" x="1">DE</tspan><tspan xml:space="preserve" dy="1em" x="1">(0%)</tspan></text></g></g></g><g class="node production" id="efec900e3558434abde7d3ee68e11d55" transform="translate(233.4140625,1089)" style="opacity: 1;"><rect rx="0" ry="0" x="-74.984375" y="-39" width="149.96875" height="78" style="fill: rgb(255, 255, 255);"/><g class="label" transform="translate(0,0)"><g transform="translate(-64.984375,-29)"><text><tspan xml:space="preserve" dy="1em" x="1">Paper Products Total</tspan><tspan xml:space="preserve" dy="1em" x="1">2.1</tspan><tspan xml:space="preserve" dy="1em" x="1">DE</tspan><tspan xml:space="preserve" dy="1em" x="1">(0%)</tspan></text></g></g></g><g class="node production" id="511f4df88e8746c28eba4ba9a6089b0f" transform="translate(628.96484375,1089)" style="opacity: 1;"><rect rx="0" ry="0" x="-74.9609375" y="-32" width="149.921875" height="64" style="fill: rgb(255, 255, 255);"/><g class="label" transform="translate(0,0)"><g transform="translate(-64.9609375,-22)"><text><tspan xml:space="preserve" dy="1em" x="1">Wood Products Total</tspan><tspan xml:space="preserve" dy="1em" x="1">DE</tspan><tspan xml:space="preserve" dy="1em" x="1">(0%)</tspan></text></g></g></g><g class="node production" id="5bc8cb7fa3604fd78f2611f413afc526" transform="translate(1142.4140625,1089)" style="opacity: 1;"><rect rx="0" ry="0" x="-89.765625" y="-39" width="179.53125" height="78" style="fill: rgb(255, 255, 255);"/><g class="label" transform="translate(0,0)"><g transform="translate(-79.765625,-29)"><text><tspan xml:space="preserve" dy="1em" x="1">Power and Heat Products</tspan><tspan xml:space="preserve" dy="1em" x="1">Total</tspan><tspan xml:space="preserve" dy="1em" x="1">DE</tspan><tspan xml:space="preserve" dy="1em" x="1">(0%)</tspan></text></g></g></g><g class="node production" id="00f4c1351d3a4558885541f3ca11ec18" transform="translate(935.390625,907)" style="opacity: 1;"><rect rx="0" ry="0" x="-74.4453125" y="-39" width="148.890625" height="78" style="fill: rgb(255, 255, 255);"/><g class="label" transform="translate(0,0)"><g transform="translate(-64.4453125,-29)"><text><tspan xml:space="preserve" dy="1em" x="1">0 Power from &gt;50kw</tspan><tspan xml:space="preserve" dy="1em" x="1">(Heizkraft)</tspan><tspan xml:space="preserve" dy="1em" x="1">DE</tspan><tspan xml:space="preserve" dy="1em" x="1">(0%)</tspan></text></g></g></g><g class="node production" id="8accad37018b4ffda54a432acf250881" transform="translate(1142.4140625,907)" style="opacity: 1;"><rect rx="0" ry="0" x="-69.390625" y="-39" width="138.78125" height="78" style="fill: rgb(255, 255, 255);"/><g class="label" transform="translate(0,0)"><g transform="translate(-59.390625,-29)"><text><tspan xml:space="preserve" dy="1em" x="1">0 Heat from &gt;50kw</tspan><tspan xml:space="preserve" dy="1em" x="1">(Waermeerzeuger)</tspan><tspan xml:space="preserve" dy="1em" x="1">DE</tspan><tspan xml:space="preserve" dy="1em" x="1">(0%)</tspan></text></g></g></g><g class="node production" id="2c1d28103469483798a59be8dd880504" transform="translate(1460.68359375,907)" style="opacity: 1;"><rect rx="0" ry="0" x="-71.1953125" y="-39" width="142.390625" height="78" style="fill: rgb(255, 255, 255);"/><g class="label" transform="translate(0,0)"><g transform="translate(-61.1953125,-29)"><text><tspan xml:space="preserve" dy="1em" x="1">Private Combustion</tspan><tspan xml:space="preserve" dy="1em" x="1">&lt;50kw Bavaria</tspan><tspan xml:space="preserve" dy="1em" x="1">DE</tspan><tspan xml:space="preserve" dy="1em" x="1">(0%)</tspan></text></g></g></g><g class="node production" id="30fc432901e240ac90d50e02462167eb" transform="translate(1460.68359375,725)" style="opacity: 1;"><rect rx="0" ry="0" x="-84.4140625" y="-32" width="168.828125" height="64" style="fill: rgb(255, 255, 255);"/><g class="label" transform="translate(0,0)"><g transform="translate(-74.4140625,-22)"><text><tspan xml:space="preserve" dy="1em" x="1">Mixed Logs Mix Bavaria</tspan><tspan xml:space="preserve" dy="1em" x="1">DE</tspan><tspan xml:space="preserve" dy="1em" x="1">(0%)</tspan></text></g></g></g><g class="node production" id="af8a0f272e4e42358e932581056c0880" transform="translate(1460.68359375,515)" style="opacity: 1;"><rect rx="0" ry="0" x="-59.1328125" y="-32" width="118.265625" height="64" style="fill: rgb(255, 255, 255);"/><g class="label" transform="translate(0,0)"><g transform="translate(-49.1328125,-22)"><text><tspan xml:space="preserve" dy="1em" x="1">Mixed Logs Mix</tspan><tspan xml:space="preserve" dy="1em" x="1">DE</tspan><tspan xml:space="preserve" dy="1em" x="1">(0%)</tspan></text></g></g></g><g class="node production" id="b51d5233c8a1e022d452d6b02e4a2309" transform="translate(1351.8125,291)" style="opacity: 1;"><rect rx="0" ry="0" x="-71.9765625" y="-46" width="143.953125" height="92" style="fill: rgb(255, 212, 212);"/><g class="label" transform="translate(0,0)"><g transform="translate(-61.9765625,-36)"><text><tspan xml:space="preserve" dy="1em" x="1">heat production,</tspan><tspan xml:space="preserve" dy="1em" x="1">mixed logs, at wood</tspan><tspan xml:space="preserve" dy="1em" x="1">heater 6kW</tspan><tspan xml:space="preserve" dy="1em" x="1">DE</tspan><tspan xml:space="preserve" dy="1em" x="1">(17%)</tspan></text></g></g></g><g class="node production" id="851aa24fafc75df137a3b33cd11820c0_copy1" transform="translate(1569.5546875,291)" style="opacity: 1;"><rect rx="0" ry="0" x="-95.765625" y="-53" width="191.53125" height="106" style="fill: rgb(255, 242, 242);"/><g class="label" transform="translate(0,0)"><g transform="translate(-85.765625,-43)"><text><tspan xml:space="preserve" dy="1em" x="1">heat production,</tspan><tspan xml:space="preserve" dy="1em" x="1">mixed logs, at wood</tspan><tspan xml:space="preserve" dy="1em" x="1">heater 6kW, state-of-the-art</tspan><tspan xml:space="preserve" dy="1em" x="1">2014</tspan><tspan xml:space="preserve" dy="1em" x="1">DE</tspan><tspan xml:space="preserve" dy="1em" x="1">(5%)</tspan></text></g></g></g><g class="node production" id="7815b9dfcfce45c786da527b3953f686" transform="translate(136.9375,907)" style="opacity: 1;"><rect rx="0" ry="0" x="-81.6953125" y="-32" width="163.390625" height="64" style="fill: rgb(255, 255, 255);"/><g class="label" transform="translate(0,0)"><g transform="translate(-71.6953125,-22)"><text><tspan xml:space="preserve" dy="1em" x="1">Cardboard Mix Bavaria</tspan><tspan xml:space="preserve" dy="1em" x="1">DE</tspan><tspan xml:space="preserve" dy="1em" x="1">(0%)</tspan></text></g></g></g><g class="node production" id="9bbb0481faa8422a97e2ee992f1a050e" transform="translate(329.890625,907)" style="opacity: 1;"><rect rx="0" ry="0" x="-61.2578125" y="-39" width="122.515625" height="78" style="fill: rgb(255, 255, 255);"/><g class="label" transform="translate(0,0)"><g transform="translate(-51.2578125,-29)"><text><tspan xml:space="preserve" dy="1em" x="1">Graphical Paper</tspan><tspan xml:space="preserve" dy="1em" x="1">Mix Bavaria</tspan><tspan xml:space="preserve" dy="1em" x="1">DE</tspan><tspan xml:space="preserve" dy="1em" x="1">(0%)</tspan></text></g></g></g><g class="node production" id="b2fe05cc140e46d295f7f8f64470f0c6" transform="translate(524.015625,907)" style="opacity: 1;"><rect rx="0" ry="0" x="-82.8671875" y="-32" width="165.734375" height="64" style="fill: rgb(255, 255, 255);"/><g class="label" transform="translate(0,0)"><g transform="translate(-72.8671875,-22)"><text><tspan xml:space="preserve" dy="1em" x="1">Sawnwood Mix Bavaria</tspan><tspan xml:space="preserve" dy="1em" x="1">DE</tspan><tspan xml:space="preserve" dy="1em" x="1">(0%)</tspan></text></g></g></g><g class="node production" id="68a7ef038a01426d8efa5a28cb3cd93d" transform="translate(733.9140625,907)" style="opacity: 1;"><rect rx="0" ry="0" x="-77.03125" y="-32" width="154.0625" height="64" style="fill: rgb(255, 255, 255);"/><g class="label" transform="translate(0,0)"><g transform="translate(-67.03125,-22)"><text><tspan xml:space="preserve" dy="1em" x="1">Particleboard Bavaria</tspan><tspan xml:space="preserve" dy="1em" x="1">DE</tspan><tspan xml:space="preserve" dy="1em" x="1">(0%)</tspan></text></g></g></g><g class="node production" id="d65a97affde64d9882676a4f75ff3b43" transform="translate(1053.26171875,725)" style="opacity: 1;"><rect rx="0" ry="0" x="-81.8671875" y="-39" width="163.734375" height="78" style="fill: rgb(255, 255, 255);"/><g class="label" transform="translate(0,0)"><g transform="translate(-71.8671875,-29)"><text><tspan xml:space="preserve" dy="1em" x="1">1 Heat Post-Consumer</tspan><tspan xml:space="preserve" dy="1em" x="1">Bavaria</tspan><tspan xml:space="preserve" dy="1em" x="1">DE</tspan><tspan xml:space="preserve" dy="1em" x="1">(0%)</tspan></text></g></g></g><g class="node production" id="2e44bdc787924474be93877c259fb135" transform="translate(1255.69921875,725)" style="opacity: 1;"><rect rx="0" ry="0" x="-70.5703125" y="-39" width="141.140625" height="78" style="fill: rgb(255, 255, 255);"/><g class="label" transform="translate(0,0)"><g transform="translate(-60.5703125,-29)"><text><tspan xml:space="preserve" dy="1em" x="1">1 Heat Wood Chips</tspan><tspan xml:space="preserve" dy="1em" x="1">Mix Bavaria</tspan><tspan xml:space="preserve" dy="1em" x="1">DE</tspan><tspan xml:space="preserve" dy="1em" x="1">(0%)</tspan></text></g></g></g><g class="node production" id="af4ea45bbff64990a4db9b3a67194c31" transform="translate(136.9375,725)" style="opacity: 1;"><rect rx="0" ry="0" x="-56.4140625" y="-32" width="112.828125" height="64" style="fill: rgb(255, 255, 255);"/><g class="label" transform="translate(0,0)"><g transform="translate(-46.4140625,-22)"><text><tspan xml:space="preserve" dy="1em" x="1">Cardboard Mix</tspan><tspan xml:space="preserve" dy="1em" x="1">DE</tspan><tspan xml:space="preserve" dy="1em" x="1">(0%)</tspan></text></g></g></g><g class="node market" id="647f327fc12cbbdd9e049793ec37e068_copy1" transform="translate(136.9375,515)" style="opacity: 1;"><rect rx="0" ry="0" x="-92.6015625" y="-39" width="185.203125" height="78" style="fill: rgb(255, 255, 255);"/><g class="label" transform="translate(0,0)"><g transform="translate(-82.6015625,-29)"><text><tspan xml:space="preserve" dy="1em" x="1">market for containerboard,</tspan><tspan xml:space="preserve" dy="1em" x="1">fluting medium</tspan><tspan xml:space="preserve" dy="1em" x="1">DE</tspan><tspan xml:space="preserve" dy="1em" x="1">(0%)</tspan></text></g></g></g><g class="node market" id="d6655a43e0d3a5f786929ade5064e0fd" transform="translate(73.5234375,291)" style="opacity: 1;"><rect rx="0" ry="0" x="-73.5234375" y="-46" width="147.046875" height="92" style="fill: rgb(255, 255, 255);"/><g class="label" transform="translate(0,0)"><g transform="translate(-63.5234375,-36)"><text><tspan xml:space="preserve" dy="1em" x="1">market for transport,</tspan><tspan xml:space="preserve" dy="1em" x="1">freight, lorry,</tspan><tspan xml:space="preserve" dy="1em" x="1">unspecified</tspan><tspan xml:space="preserve" dy="1em" x="1">DE</tspan><tspan xml:space="preserve" dy="1em" x="1">(0%)</tspan></text></g></g></g><g class="node production" id="3c81d7a6f2ef7938163dbd6ee07b2dc3" transform="translate(552.203125,291)" style="opacity: 1;"><rect rx="0" ry="0" x="-93.78125" y="-46" width="187.5625" height="92" style="fill: rgb(255, 250, 250);"/><g class="label" transform="translate(0,0)"><g transform="translate(-83.78125,-36)"><text><tspan xml:space="preserve" dy="1em" x="1">containerboard production,</tspan><tspan xml:space="preserve" dy="1em" x="1">fluting medium,</tspan><tspan xml:space="preserve" dy="1em" x="1">recycled</tspan><tspan xml:space="preserve" dy="1em" x="1">DE</tspan><tspan xml:space="preserve" dy="1em" x="1">(2%)</tspan></text></g></g></g><g class="node market" id="cf361b5556d9a5efb113a584d4a44ba5" transform="translate(73.5234375,67)" style="opacity: 1;"><rect rx="0" ry="0" x="-73.5234375" y="-67" width="147.046875" height="134" style="fill: rgb(255, 255, 255);"/><g class="label" transform="translate(0,0)"><g transform="translate(-63.5234375,-57)"><text><tspan xml:space="preserve" dy="1em" x="1">transport, freight,</tspan><tspan xml:space="preserve" dy="1em" x="1">lorry, all sizes,</tspan><tspan xml:space="preserve" dy="1em" x="1">EURO3 to generic</tspan><tspan xml:space="preserve" dy="1em" x="1">market for transport,</tspan><tspan xml:space="preserve" dy="1em" x="1">freight, lorry,</tspan><tspan xml:space="preserve" dy="1em" x="1">unspecified</tspan><tspan xml:space="preserve" dy="1em" x="1">DE</tspan><tspan xml:space="preserve" dy="1em" x="1">(0%)</tspan></text></g></g></g><g class="node production" id="418fc266bc2640579ec524ed7e47a899_copy1" transform="translate(524.015625,725)" style="opacity: 1;"><rect rx="0" ry="0" x="-57.578125" y="-32" width="115.15625" height="64" style="fill: rgb(255, 255, 255);"/><g class="label" transform="translate(0,0)"><g transform="translate(-47.578125,-22)"><text><tspan xml:space="preserve" dy="1em" x="1">Sawnwood Mix</tspan><tspan xml:space="preserve" dy="1em" x="1">DE</tspan><tspan xml:space="preserve" dy="1em" x="1">(0%)</tspan></text></g></g></g><g class="node production" id="54f1d7f706a4452dba66d8209a76215e" transform="translate(329.890625,725)" style="opacity: 1;"><rect rx="0" ry="0" x="-61.2578125" y="-39" width="122.515625" height="78" style="fill: rgb(255, 255, 255);"/><g class="label" transform="translate(0,0)"><g transform="translate(-51.2578125,-29)"><text><tspan xml:space="preserve" dy="1em" x="1">Graphical Paper</tspan><tspan xml:space="preserve" dy="1em" x="1">Mix</tspan><tspan xml:space="preserve" dy="1em" x="1">DE</tspan><tspan xml:space="preserve" dy="1em" x="1">(0%)</tspan></text></g></g></g><g class="node production" id="19a435fcf80f2f2e795cea6320853bdf_copy1" transform="translate(1053.26171875,515)" style="opacity: 1;"><rect rx="0" ry="0" x="-77.421875" y="-53" width="154.84375" height="106" style="fill: rgb(255, 240, 240);"/><g class="label" transform="translate(0,0)"><g transform="translate(-67.421875,-43)"><text><tspan xml:space="preserve" dy="1em" x="1">heat production,</tspan><tspan xml:space="preserve" dy="1em" x="1">wood chips from</tspan><tspan xml:space="preserve" dy="1em" x="1">post-consumer wood,</tspan><tspan xml:space="preserve" dy="1em" x="1">at furnace 300kW</tspan><tspan xml:space="preserve" dy="1em" x="1">DE</tspan><tspan xml:space="preserve" dy="1em" x="1">(6%)</tspan></text></g></g></g><g class="node production" id="d96f4ef4831d45a1ae170d0a6235a67d" transform="translate(1255.69921875,515)" style="opacity: 1;"><rect rx="0" ry="0" x="-64.734375" y="-39" width="129.46875" height="78" style="fill: rgb(255, 255, 255);"/><g class="label" transform="translate(0,0)"><g transform="translate(-54.734375,-29)"><text><tspan xml:space="preserve" dy="1em" x="1">Heat Wood Chips</tspan><tspan xml:space="preserve" dy="1em" x="1">Forest Mix</tspan><tspan xml:space="preserve" dy="1em" x="1">DE</tspan><tspan xml:space="preserve" dy="1em" x="1">(0%)</tspan></text></g></g></g><g class="node market" id="ea6e15c7a13c73bfd6a44ee6a47cea3f_copy1" transform="translate(733.9140625,725)" style="opacity: 1;"><rect rx="0" ry="0" x="-85.8671875" y="-39" width="171.734375" height="78" style="fill: rgb(255, 255, 255);"/><g class="label" transform="translate(0,0)"><g transform="translate(-75.8671875,-29)"><text><tspan xml:space="preserve" dy="1em" x="1">market for particleboard,</tspan><tspan xml:space="preserve" dy="1em" x="1">uncoated</tspan><tspan xml:space="preserve" dy="1em" x="1">DE</tspan><tspan xml:space="preserve" dy="1em" x="1">(0%)</tspan></text></g></g></g></g></g></g></g></svg>