<svg xmlns="http://www.w3.org/2000/svg" width="2166.91552734375" height="1842"><style>


/*to make the svg resizable*/ /*
.svg-container {
    display: inline-block;
    position: relative;
    width: 100%;
    /*padding-bottom: 100%; /* aspect ratio */ /*
    vertical-align: top;
    /*overflow: hidden;*/ /*
}

.svg-content-responsive {
    display: inline-block;
    position: absolute;
    top: 10px;
    left: 0;
} */ /*

svg {
  border: 1px solid #999;
  /*overflow: hidden;*/ /*
} */

.canvas {
  overflow: visible;
}
.canvas .wrapper.outer &gt; .background {
  fill: #FFFFFF;
}
.canvas .wrapper.inner &gt; .background {
  fill: #FFFFFF;
  cursor: move;
}
.canvas .background {
  fill: #FFFFFF;
  stroke: #333333;
  cursor: move;
}
.canvas .panCanvas {
  cursor: click;
}

.canvas .minimap {
  stroke: #000000; /* #111111 */
  stroke-width: 1px;
}

.canvas .minimap .frame {
  pointer-events: all;
}

.canvas .minimap .container {
  stroke: #000000; /* #111111 */
  /*stroke-width: 1px;*/
  /*border: 1px solid #999;*/
}

.canvas .minimap .frame .background {
  stroke: #FF0000; /* #111111 */
  stroke-width: 10px;
  fill-opacity: 0.1;   /*grey shade of mini-map*/
  fill: #FFFFFF; /* #FF0000 */
  /*fill: url(#minimapGradient_qwpyza); */
  filter: url(#minimapDropShadow_qwpyza);
  cursor: move;
  border: 1px solid #999;
}

/*
.cluster rect {
  stroke: #333;
  fill: #000;
  fill-opacity: 0.1;
  stroke-width: 1.5px;
}*/

h1, h2 {
  color: #333;
}

/*textarea {
  width: 800px;
}*/

text {
  font-family: sans-serif;
  font-size: 14px;
  /* no effect:
  text-align: center;
  word-wrap: break-word;
  width: 50px;
  max-width: 60px;
  */
}

.activityNameText {
    color:black;
    text-align: center;
}
.locationText {
    color: grey;
    text-align: center;
    /*font-weight:bold;*/
}
.edgeText {
    color:darkblue;
    text-align: center;
}

.node {
    fill: black;  /* text color of nodes*/
    /* no effect:
    white-space: nowrap;
    */
}

.node rect {
  stroke: #333;
  fill: #fff;
  stroke-width: 3px;
}

.node.demand {
  /*stroke: #333;  */
  font-weight: bold
}

.node.demand rect {
  stroke: darkblue;
  fill: #fff;
  stroke-width: 4px;
}

.node.market rect {
  stroke: #ed9736;
  fill: #fff;
  stroke-width: 3px;
}

.node.marketgroup rect {
  stroke: #ffc34c;
  fill: #fff;
  stroke-width: 3px;
}

.node.treatment rect {
  stroke: #f4425c;
  fill: #fff;
  stroke-width: 3px;
}

/* Edges */
/*.edgePath path.path {
  stroke: red;
  /*fill: darkred; /* Arrow head */
  /*lineInterpolate: basis;*/
/*}*/

.edgePath.impact path.path {
  stroke: red;
  opacity: 0.7;
}

.edgePath.benefit path.path {
  stroke: green;
  opacity: 0.7;
}

/* Arrowhead */
.edgePath path {
  stroke: none;
  /*fill: black;*/
  opacity: 0.3;
}
/*.edgePath marker {
  fill: darkgrey; /* Arrow head */
  /*opacity: 1;
}*/

.edgeLabel {
    fill: darkblue;  /* text color of edges*/
}




/*.label {
   /* text color*/
  /* no effect:
  margin-top: 30em;
fill: red;
  display: block;
  text-align: right;
  font: 20px sans-serif;
  background: #fffce2;
  padding: 200px; */
/*}

.edgeLabel {
   /* text color*/
  /* no effect:
  fill: red;
  margin-top: 30em;
  display: block;
  text-align: right;
  font: 20px sans-serif;
  background: #fffce2;
  padding: 200px; */
/*}*/

.error {
  color: red;
}

div.tooltip {
    position: absolute;
    text-align: left;
    width: auto;
    height: auto;
    padding: 2px;
    font: 12px sans-serif;
    background: #fffce2;
    border: 0px;
    border-radius: 8px;
    pointer-events: none;
    /*color: red;*/
}</style><g class="wrapper inner" clip-path="url(#wrapperClipPath_qwpyza)" transform="translate(0,0)" style="touch-action: none; -webkit-tap-highlight-color: rgba(0, 0, 0, 0);"><g class="panCanvas"><g class="output"><g class="clusters"/><g class="edgePaths"><g class="edgePath impact" style="opacity: 1;" stroke-width="29.17663159361059"><path class="path" d="M725.82421875,1660L725.82421875,1668.6666666666667C725.82421875,1677.3333333333333,725.82421875,1694.6666666666667,882.4049479166666,1717.167479539128C1038.9856770833333,1739.6682924115892,1352.1471354166667,1767.336584823178,1508.7278645833333,1781.1707310289728L1665.30859375,1795.0048772347673" marker-end="url(#arrowhead6980)" style="fill: none;"/><defs><marker id="arrowhead6980" viewBox="0 0 60 60" refX="9" refY="5" markerUnits="strokeWidth" markerWidth="8" markerHeight="6" orient="auto"><path d="M 0 0 L 10 5 L 0 10 z" style="stroke-width: 1; stroke-dasharray: 1, 0;"/></marker></defs></g><g class="edgePath impact" style="opacity: 1;" stroke-width="7.624060922436058"><path class="path" d="M1665.7578125,1653L1665.7578125,1662.8333333333333C1665.7578125,1672.6666666666667,1665.7578125,1692.3333333333333,1674.3333333333333,1710.8333333333333C1682.9088541666667,1729.3333333333333,1700.0598958333333,1746.6666666666667,1708.6354166666667,1755.3333333333333L1717.2109375,1764" marker-end="url(#arrowhead6981)" style="fill: none;"/><defs><marker id="arrowhead6981" viewBox="0 0 60 60" refX="9" refY="5" markerUnits="strokeWidth" markerWidth="8" markerHeight="6" orient="auto"><path d="M 0 0 L 10 5 L 0 10 z" style="stroke-width: 1; stroke-dasharray: 1, 0;"/></marker></defs></g><g class="edgePath impact" style="opacity: 1;" stroke-width="2.9924693455274767"><path class="path" d="M1880.484375,1660L1880.484375,1668.6666666666667C1880.484375,1677.3333333333333,1880.484375,1694.6666666666667,1868.6097470238094,1712C1856.735119047619,1729.3333333333333,1832.9858630952378,1746.6666666666667,1821.1112351190475,1755.3333333333333L1809.236607142857,1764" marker-end="url(#arrowhead6982)" style="fill: none;"/><defs><marker id="arrowhead6982" viewBox="0 0 60 60" refX="9" refY="5" markerUnits="strokeWidth" markerWidth="8" markerHeight="6" orient="auto"><path d="M 0 0 L 10 5 L 0 10 z" style="stroke-width: 1; stroke-dasharray: 1, 0;"/></marker></defs></g><g class="edgePath impact" style="opacity: 1;" stroke-width="10.992331770558657"><path class="path" d="M149.86328125,1471L149.86328125,1480.8333333333333C149.86328125,1490.6666666666667,149.86328125,1510.3333333333333,233.359375,1533.358784458943C316.85546875,1556.384235584553,483.84765625,1582.768471169106,567.34375,1595.9605889613824L650.83984375,1609.152706753659" marker-end="url(#arrowhead6983)" style="fill: none;"/><defs><marker id="arrowhead6983" viewBox="0 0 60 60" refX="9" refY="5" markerUnits="strokeWidth" markerWidth="8" markerHeight="6" orient="auto"><path d="M 0 0 L 10 5 L 0 10 z" style="stroke-width: 1; stroke-dasharray: 1, 0;"/></marker></defs></g><g class="edgePath impact" style="opacity: 1;" stroke-width="13.293205215540079"><path class="path" d="M606.015625,1478L606.015625,1486.6666666666667C606.015625,1495.3333333333333,606.015625,1512.6666666666667,617.4259672619047,1530C628.8363095238095,1547.3333333333333,651.656994047619,1564.6666666666667,663.0673363095237,1573.3333333333333L674.4776785714286,1582" marker-end="url(#arrowhead6984)" style="fill: none;"/><defs><marker id="arrowhead6984" viewBox="0 0 60 60" refX="9" refY="5" markerUnits="strokeWidth" markerWidth="8" markerHeight="6" orient="auto"><path d="M 0 0 L 10 5 L 0 10 z" style="stroke-width: 1; stroke-dasharray: 1, 0;"/></marker></defs></g><g class="edgePath impact" style="opacity: 1;" stroke-width="4.891094607511836"><path class="path" d="M1238.6640625,1471L1238.6640625,1480.8333333333333C1238.6640625,1490.6666666666667,1238.6640625,1510.3333333333333,1165.6881510416667,1533.115754035053C1092.7122395833333,1555.8981747367725,946.7604166666666,1581.7963494735452,873.7845052083334,1594.7454368419315L800.80859375,1607.694524210318" marker-end="url(#arrowhead6985)" style="fill: none;"/><defs><marker id="arrowhead6985" viewBox="0 0 60 60" refX="9" refY="5" markerUnits="strokeWidth" markerWidth="8" markerHeight="6" orient="auto"><path d="M 0 0 L 10 5 L 0 10 z" style="stroke-width: 1; stroke-dasharray: 1, 0;"/></marker></defs></g><g class="edgePath impact" style="opacity: 1;" stroke-width="13.293205215540079"><path class="path" d="M606.015625,1296L606.015625,1304.6666666666667C606.015625,1313.3333333333333,606.015625,1330.6666666666667,606.015625,1348C606.015625,1365.3333333333333,606.015625,1382.6666666666667,606.015625,1391.3333333333333L606.015625,1400" marker-end="url(#arrowhead6986)" style="fill: none;"/><defs><marker id="arrowhead6986" viewBox="0 0 60 60" refX="9" refY="5" markerUnits="strokeWidth" markerWidth="8" markerHeight="6" orient="auto"><path d="M 0 0 L 10 5 L 0 10 z" style="stroke-width: 1; stroke-dasharray: 1, 0;"/></marker></defs></g><g class="edgePath impact" style="opacity: 1;" stroke-width="1.720580248304636"><path class="path" d="M364.56640625,1114L364.56640625,1122.6666666666667C364.56640625,1131.3333333333333,364.56640625,1148.6666666666667,394.5983072916667,1168.652081884023C424.6302083333333,1188.637497101379,484.6940104166667,1211.2749942027579,514.7259114583334,1222.5937427534475L544.7578125,1233.912491304137" marker-end="url(#arrowhead6987)" style="fill: none;"/><defs><marker id="arrowhead6987" viewBox="0 0 60 60" refX="9" refY="5" markerUnits="strokeWidth" markerWidth="8" markerHeight="6" orient="auto"><path d="M 0 0 L 10 5 L 0 10 z" style="stroke-width: 1; stroke-dasharray: 1, 0;"/></marker></defs></g><g class="edgePath impact" style="opacity: 1;" stroke-width="4.533159721544685"><path class="path" d="M549.58203125,1114L549.58203125,1122.6666666666667C549.58203125,1131.3333333333333,549.58203125,1148.6666666666667,554.9566592261905,1166C560.331287202381,1183.3333333333333,571.0805431547619,1200.6666666666667,576.4551711309524,1209.3333333333333L581.8297991071429,1218" marker-end="url(#arrowhead6988)" style="fill: none;"/><defs><marker id="arrowhead6988" viewBox="0 0 60 60" refX="9" refY="5" markerUnits="strokeWidth" markerWidth="8" markerHeight="6" orient="auto"><path d="M 0 0 L 10 5 L 0 10 z" style="stroke-width: 1; stroke-dasharray: 1, 0;"/></marker></defs></g><g class="edgePath impact" style="opacity: 1;" stroke-width="1.9017032188813827"><path class="path" d="M726.80859375,1114L726.80859375,1122.6666666666667C726.80859375,1131.3333333333333,726.80859375,1148.6666666666667,715.3045014880953,1166C703.8004092261905,1183.3333333333333,680.792224702381,1200.6666666666667,669.2881324404763,1209.3333333333333L657.7840401785714,1218" marker-end="url(#arrowhead6989)" style="fill: none;"/><defs><marker id="arrowhead6989" viewBox="0 0 60 60" refX="9" refY="5" markerUnits="strokeWidth" markerWidth="8" markerHeight="6" orient="auto"><path d="M 0 0 L 10 5 L 0 10 z" style="stroke-width: 1; stroke-dasharray: 1, 0;"/></marker></defs></g><g class="edgePath impact" style="opacity: 1;" stroke-width="3.0087234951888178"><path class="path" d="M918.55078125,1114L918.55078125,1122.6666666666667C918.55078125,1131.3333333333333,918.55078125,1148.6666666666667,876.6712239583334,1169.5272885966995C834.7916666666666,1190.3879105267324,751.0325520833334,1214.7758210534648,709.1529947916666,1226.969776316831L667.2734375,1239.1637315801972" marker-end="url(#arrowhead6990)" style="fill: none;"/><defs><marker id="arrowhead6990" viewBox="0 0 60 60" refX="9" refY="5" markerUnits="strokeWidth" markerWidth="8" markerHeight="6" orient="auto"><path d="M 0 0 L 10 5 L 0 10 z" style="stroke-width: 1; stroke-dasharray: 1, 0;"/></marker></defs></g><g class="edgePath impact" style="opacity: 1;" stroke-width="10.992331770558657"><path class="path" d="M149.86328125,1289L149.86328125,1298.8333333333333C149.86328125,1308.6666666666667,149.86328125,1328.3333333333333,149.86328125,1348C149.86328125,1367.6666666666667,149.86328125,1387.3333333333333,149.86328125,1397.1666666666667L149.86328125,1407" marker-end="url(#arrowhead6991)" style="fill: none;"/><defs><marker id="arrowhead6991" viewBox="0 0 60 60" refX="9" refY="5" markerUnits="strokeWidth" markerWidth="8" markerHeight="6" orient="auto"><path d="M 0 0 L 10 5 L 0 10 z" style="stroke-width: 1; stroke-dasharray: 1, 0;"/></marker></defs></g><g class="edgePath impact" style="opacity: 1;" stroke-width="9.525963347850844"><path class="path" d="M149.86328125,1114L149.86328125,1122.6666666666667C149.86328125,1131.3333333333333,149.86328125,1148.6666666666667,149.86328125,1167.1666666666667C149.86328125,1185.6666666666667,149.86328125,1205.3333333333333,149.86328125,1215.1666666666667L149.86328125,1225" marker-end="url(#arrowhead6992)" style="fill: none;"/><defs><marker id="arrowhead6992" viewBox="0 0 60 60" refX="9" refY="5" markerUnits="strokeWidth" markerWidth="8" markerHeight="6" orient="auto"><path d="M 0 0 L 10 5 L 0 10 z" style="stroke-width: 1; stroke-dasharray: 1, 0;"/></marker></defs></g><g class="edgePath impact" style="opacity: 1;" stroke-width="8.708230342759055"><path class="path" d="M149.86328125,932L149.86328125,940.6666666666666C149.86328125,949.3333333333334,149.86328125,966.6666666666666,149.86328125,984C149.86328125,1001.3333333333334,149.86328125,1018.6666666666666,149.86328125,1027.3333333333333L149.86328125,1036" marker-end="url(#arrowhead6993)" style="fill: none;"/><defs><marker id="arrowhead6993" viewBox="0 0 60 60" refX="9" refY="5" markerUnits="strokeWidth" markerWidth="8" markerHeight="6" orient="auto"><path d="M 0 0 L 10 5 L 0 10 z" style="stroke-width: 1; stroke-dasharray: 1, 0;"/></marker></defs></g><g class="edgePath impact" style="opacity: 1;" stroke-width="3.177062195415921"><path class="path" d="M62.234375,729L62.234375,738.8333333333334C62.234375,748.6666666666666,62.234375,768.3333333333334,69.98387011054422,786.8333333333334C77.73336522108843,805.3333333333334,93.23235544217687,822.6666666666666,100.98185055272108,831.3333333333334L108.7313456632653,840" marker-end="url(#arrowhead6994)" style="fill: none;"/><defs><marker id="arrowhead6994" viewBox="0 0 60 60" refX="9" refY="5" markerUnits="strokeWidth" markerWidth="8" markerHeight="6" orient="auto"><path d="M 0 0 L 10 5 L 0 10 z" style="stroke-width: 1; stroke-dasharray: 1, 0;"/></marker></defs></g><g class="edgePath impact" style="opacity: 1;" stroke-width="4.024797327170524"><path class="path" d="M237.4921875,729L237.4921875,738.8333333333334C237.4921875,748.6666666666666,237.4921875,768.3333333333334,229.74269238945578,786.8333333333334C221.99319727891157,805.3333333333334,206.49420705782313,822.6666666666666,198.74471194727892,831.3333333333334L190.9952168367347,840" marker-end="url(#arrowhead6995)" style="fill: none;"/><defs><marker id="arrowhead6995" viewBox="0 0 60 60" refX="9" refY="5" markerUnits="strokeWidth" markerWidth="8" markerHeight="6" orient="auto"><path d="M 0 0 L 10 5 L 0 10 z" style="stroke-width: 1; stroke-dasharray: 1, 0;"/></marker></defs></g><g class="edgePath impact" style="opacity: 1;" stroke-width="0.24878989792817466"><path class="path" d="M418.625,736L418.625,744.6666666666666C418.625,753.3333333333334,418.625,770.6666666666666,389.4615885416667,789.9673415403398C360.2981770833333,809.2680164140129,301.9713541666667,830.5360328280259,272.8079427083333,841.1700410350323L243.64453125,851.8040492420389" marker-end="url(#arrowhead6996)" style="fill: none;"/><defs><marker id="arrowhead6996" viewBox="0 0 60 60" refX="9" refY="5" markerUnits="strokeWidth" markerWidth="8" markerHeight="6" orient="auto"><path d="M 0 0 L 10 5 L 0 10 z" style="stroke-width: 1; stroke-dasharray: 1, 0;"/></marker></defs></g><g class="edgePath impact" style="opacity: 1;" stroke-width="8.36462749978019"><path class="path" d="M237.4921875,554L237.4921875,561.5C237.4921875,569,237.4921875,584,237.4921875,600.1666666666666C237.4921875,616.3333333333334,237.4921875,633.6666666666666,237.4921875,642.3333333333334L237.4921875,651" marker-end="url(#arrowhead6997)" style="fill: none;"/><defs><marker id="arrowhead6997" viewBox="0 0 60 60" refX="9" refY="5" markerUnits="strokeWidth" markerWidth="8" markerHeight="6" orient="auto"><path d="M 0 0 L 10 5 L 0 10 z" style="stroke-width: 1; stroke-dasharray: 1, 0;"/></marker></defs></g><g class="edgePath impact" style="opacity: 1;" stroke-width="0.0012845870140489035"><path class="path" d="M143.953125,386L143.953125,394.6666666666667C143.953125,403.3333333333333,143.953125,420.6666666666667,153.6039806547619,438C163.25483630952382,455.3333333333333,182.55654761904762,472.6666666666667,192.20740327380955,481.3333333333333L201.85825892857144,490" marker-end="url(#arrowhead6998)" style="fill: none;"/><defs><marker id="arrowhead6998" viewBox="0 0 60 60" refX="9" refY="5" markerUnits="strokeWidth" markerWidth="8" markerHeight="6" orient="auto"><path d="M 0 0 L 10 5 L 0 10 z" style="stroke-width: 1; stroke-dasharray: 1, 0;"/></marker></defs></g><g class="edgePath impact" style="opacity: 1;" stroke-width="8.324101817945635"><path class="path" d="M331.03125,379L331.03125,388.8333333333333C331.03125,398.6666666666667,331.03125,418.3333333333333,321.3803943452381,436.8333333333333C311.7295386904762,455.3333333333333,292.42782738095235,472.6666666666667,282.7769717261904,481.3333333333333L273.12611607142856,490" marker-end="url(#arrowhead6999)" style="fill: none;"/><defs><marker id="arrowhead6999" viewBox="0 0 60 60" refX="9" refY="5" markerUnits="strokeWidth" markerWidth="8" markerHeight="6" orient="auto"><path d="M 0 0 L 10 5 L 0 10 z" style="stroke-width: 1; stroke-dasharray: 1, 0;"/></marker></defs></g><g class="edgePath impact" style="opacity: 1;" stroke-width="1.384468242053611"><path class="path" d="M241.828125,218L241.828125,225.5C241.828125,233,241.828125,248,251.03162202380952,264.1666666666667C260.23511904761904,280.3333333333333,278.64211309523813,297.6666666666667,287.84561011904765,306.3333333333333L297.04910714285717,315" marker-end="url(#arrowhead7000)" style="fill: none;"/><defs><marker id="arrowhead7000" viewBox="0 0 60 60" refX="9" refY="5" markerUnits="strokeWidth" markerWidth="8" markerHeight="6" orient="auto"><path d="M 0 0 L 10 5 L 0 10 z" style="stroke-width: 1; stroke-dasharray: 1, 0;"/></marker></defs></g><g class="edgePath impact" style="opacity: 1;" stroke-width="4.783708730223146"><path class="path" d="M420.234375,218L420.234375,225.5C420.234375,233,420.234375,248,411.0308779761904,264.1666666666667C401.82738095238096,280.3333333333333,383.4203869047619,297.6666666666667,374.21688988095235,306.3333333333333L365.01339285714283,315" marker-end="url(#arrowhead7001)" style="fill: none;"/><defs><marker id="arrowhead7001" viewBox="0 0 60 60" refX="9" refY="5" markerUnits="strokeWidth" markerWidth="8" markerHeight="6" orient="auto"><path d="M 0 0 L 10 5 L 0 10 z" style="stroke-width: 1; stroke-dasharray: 1, 0;"/></marker></defs></g><g class="edgePath impact" style="opacity: 1;" stroke-width="1.5300126147671471"><path class="path" d="M1452.8359375,1471L1452.8359375,1480.8333333333333C1452.8359375,1490.6666666666667,1452.8359375,1510.3333333333333,1475.843978937729,1530C1498.8520203754579,1549.6666666666667,1544.8681032509157,1569.3333333333333,1567.8761446886447,1579.1666666666667L1590.8841861263736,1589" marker-end="url(#arrowhead7002)" style="fill: none;"/><defs><marker id="arrowhead7002" viewBox="0 0 60 60" refX="9" refY="5" markerUnits="strokeWidth" markerWidth="8" markerHeight="6" orient="auto"><path d="M 0 0 L 10 5 L 0 10 z" style="stroke-width: 1; stroke-dasharray: 1, 0;"/></marker></defs></g><g class="edgePath impact" style="opacity: 1;" stroke-width="1.8041218626141546"><path class="path" d="M1668.171875,1471L1668.171875,1480.8333333333333C1668.171875,1490.6666666666667,1668.171875,1510.3333333333333,1667.9110147664835,1530C1667.6501545329672,1549.6666666666667,1667.128434065934,1569.3333333333333,1666.8675738324175,1579.1666666666667L1666.606713598901,1589" marker-end="url(#arrowhead7003)" style="fill: none;"/><defs><marker id="arrowhead7003" viewBox="0 0 60 60" refX="9" refY="5" markerUnits="strokeWidth" markerWidth="8" markerHeight="6" orient="auto"><path d="M 0 0 L 10 5 L 0 10 z" style="stroke-width: 1; stroke-dasharray: 1, 0;"/></marker></defs></g><g class="edgePath impact" style="opacity: 1;" stroke-width="3.684429887526635"><path class="path" d="M1878.0703125,1471L1878.0703125,1480.8333333333333C1878.0703125,1490.6666666666667,1878.0703125,1510.3333333333333,1855.1281192765566,1530C1832.1859260531135,1549.6666666666667,1786.3015396062272,1569.3333333333333,1763.3593463827838,1579.1666666666667L1740.4171531593406,1589" marker-end="url(#arrowhead7004)" style="fill: none;"/><defs><marker id="arrowhead7004" viewBox="0 0 60 60" refX="9" refY="5" markerUnits="strokeWidth" markerWidth="8" markerHeight="6" orient="auto"><path d="M 0 0 L 10 5 L 0 10 z" style="stroke-width: 1; stroke-dasharray: 1, 0;"/></marker></defs></g><g class="edgePath impact" style="opacity: 1;" stroke-width="4.891094607511838"><path class="path" d="M1238.6640625,1296L1238.6640625,1304.6666666666667C1238.6640625,1313.3333333333333,1238.6640625,1330.6666666666667,1238.6640625,1349.1666666666667C1238.6640625,1367.6666666666667,1238.6640625,1387.3333333333333,1238.6640625,1397.1666666666667L1238.6640625,1407" marker-end="url(#arrowhead7005)" style="fill: none;"/><defs><marker id="arrowhead7005" viewBox="0 0 60 60" refX="9" refY="5" markerUnits="strokeWidth" markerWidth="8" markerHeight="6" orient="auto"><path d="M 0 0 L 10 5 L 0 10 z" style="stroke-width: 1; stroke-dasharray: 1, 0;"/></marker></defs></g><g class="edgePath impact" style="opacity: 1;" stroke-width="1.2051200910653754"><path class="path" d="M1129.36328125,1107L1129.36328125,1116.8333333333333C1129.36328125,1126.6666666666667,1129.36328125,1146.3333333333333,1139.7728794642856,1164.8333333333333C1150.1824776785713,1183.3333333333333,1171.001674107143,1200.6666666666667,1181.4112723214284,1209.3333333333333L1191.8208705357142,1218" marker-end="url(#arrowhead7006)" style="fill: none;"/><defs><marker id="arrowhead7006" viewBox="0 0 60 60" refX="9" refY="5" markerUnits="strokeWidth" markerWidth="8" markerHeight="6" orient="auto"><path d="M 0 0 L 10 5 L 0 10 z" style="stroke-width: 1; stroke-dasharray: 1, 0;"/></marker></defs></g><g class="edgePath impact" style="opacity: 1;" stroke-width="3.2458921419718396"><path class="path" d="M1347.96484375,1114L1347.96484375,1122.6666666666667C1347.96484375,1131.3333333333333,1347.96484375,1148.6666666666667,1337.5552455357144,1166C1327.1456473214287,1183.3333333333333,1306.326450892857,1200.6666666666667,1295.9168526785716,1209.3333333333333L1285.5072544642858,1218" marker-end="url(#arrowhead7007)" style="fill: none;"/><defs><marker id="arrowhead7007" viewBox="0 0 60 60" refX="9" refY="5" markerUnits="strokeWidth" markerWidth="8" markerHeight="6" orient="auto"><path d="M 0 0 L 10 5 L 0 10 z" style="stroke-width: 1; stroke-dasharray: 1, 0;"/></marker></defs></g><g class="edgePath impact" style="opacity: 1;" stroke-width="0.0049625608028459455"><path class="path" d="M420.234375,64L420.234375,71.5C420.234375,79,420.234375,94,420.234375,109C420.234375,124,420.234375,139,420.234375,146.5L420.234375,154" marker-end="url(#arrowhead7008)" style="fill: none;"/><defs><marker id="arrowhead7008" viewBox="0 0 60 60" refX="9" refY="5" markerUnits="strokeWidth" markerWidth="8" markerHeight="6" orient="auto"><path d="M 0 0 L 10 5 L 0 10 z" style="stroke-width: 1; stroke-dasharray: 1, 0;"/></marker></defs></g></g><g class="edgeLabels"><g class="edgeLabel" transform="translate(795.80859375,1712)" style="opacity: 1;"><g transform="translate(-64.984375,-22)" class="label"><text><tspan xml:space="preserve" dy="1em" x="1">Paper Products Total</tspan><tspan xml:space="preserve" dy="1em" x="1">2.1</tspan><tspan xml:space="preserve" dy="1em" x="1">(72.9%)</tspan></text></g></g><g class="edgeLabel" transform="translate(1735.71875,1712)" style="opacity: 1;"><g transform="translate(-64.9609375,-15)" class="label"><text><tspan xml:space="preserve" dy="1em" x="1">Wood Products Total</tspan><tspan xml:space="preserve" dy="1em" x="1">(19.1%)</tspan></text></g></g><g class="edgeLabel" transform="translate(1965.25,1712)" style="opacity: 1;"><g transform="translate(-79.765625,-22)" class="label"><text><tspan xml:space="preserve" dy="1em" x="1">Power and Heat Products</tspan><tspan xml:space="preserve" dy="1em" x="1">Total</tspan><tspan xml:space="preserve" dy="1em" x="1">(7.48%)</tspan></text></g></g><g class="edgeLabel" transform="translate(226.55859375,1530)" style="opacity: 1;"><g transform="translate(-71.6953125,-15)" class="label"><text><tspan xml:space="preserve" dy="1em" x="1">Cardboard Mix Bavaria</tspan><tspan xml:space="preserve" dy="1em" x="1">(27.5%)</tspan></text></g></g><g class="edgeLabel" transform="translate(662.2734375,1530)" style="opacity: 1;"><g transform="translate(-51.2578125,-22)" class="label"><text><tspan xml:space="preserve" dy="1em" x="1">Graphical Paper</tspan><tspan xml:space="preserve" dy="1em" x="1">Mix Bavaria</tspan><tspan xml:space="preserve" dy="1em" x="1">(33.2%)</tspan></text></g></g><g class="edgeLabel" transform="translate(1315.3671875,1530)" style="opacity: 1;"><g transform="translate(-71.703125,-15)" class="label"><text><tspan xml:space="preserve" dy="1em" x="1">Hygenic Paper Bavaria</tspan><tspan xml:space="preserve" dy="1em" x="1">(12.2%)</tspan></text></g></g><g class="edgeLabel" transform="translate(662.2734375,1348)" style="opacity: 1;"><g transform="translate(-51.2578125,-22)" class="label"><text><tspan xml:space="preserve" dy="1em" x="1">Graphical Paper</tspan><tspan xml:space="preserve" dy="1em" x="1">Mix</tspan><tspan xml:space="preserve" dy="1em" x="1">(33.2%)</tspan></text></g></g><g class="edgeLabel" transform="translate(421.71484375,1166)" style="opacity: 1;"><g transform="translate(-52.1484375,-22)" class="label"><text><tspan xml:space="preserve" dy="1em" x="1">paper, woodfree,</tspan><tspan xml:space="preserve" dy="1em" x="1">uncoated</tspan><tspan xml:space="preserve" dy="1em" x="1">(4.30%)</tspan></text></g></g><g class="edgeLabel" transform="translate(606.50390625,1166)" style="opacity: 1;"><g transform="translate(-51.921875,-15)" class="label"><text><tspan xml:space="preserve" dy="1em" x="1">paper, newsprint</tspan><tspan xml:space="preserve" dy="1em" x="1">(11.3%)</tspan></text></g></g><g class="edgeLabel" transform="translate(783.95703125,1166)" style="opacity: 1;"><g transform="translate(-52.1484375,-22)" class="label"><text><tspan xml:space="preserve" dy="1em" x="1">paper, woodfree,</tspan><tspan xml:space="preserve" dy="1em" x="1">coated</tspan><tspan xml:space="preserve" dy="1em" x="1">(4.75%)</tspan></text></g></g><g class="edgeLabel" transform="translate(987.76953125,1166)" style="opacity: 1;"><g transform="translate(-64.21875,-22)" class="label"><text><tspan xml:space="preserve" dy="1em" x="1">graphic paper, 100%</tspan><tspan xml:space="preserve" dy="1em" x="1">recycled</tspan><tspan xml:space="preserve" dy="1em" x="1">(7.52%)</tspan></text></g></g><g class="edgeLabel" transform="translate(201.27734375,1348)" style="opacity: 1;"><g transform="translate(-46.4140625,-15)" class="label"><text><tspan xml:space="preserve" dy="1em" x="1">Cardboard Mix</tspan><tspan xml:space="preserve" dy="1em" x="1">(27.5%)</tspan></text></g></g><g class="edgeLabel" transform="translate(204.01171875,1166)" style="opacity: 1;"><g transform="translate(-49.1484375,-22)" class="label"><text><tspan xml:space="preserve" dy="1em" x="1">containerboard,</tspan><tspan xml:space="preserve" dy="1em" x="1">fluting medium</tspan><tspan xml:space="preserve" dy="1em" x="1">(23.8%)</tspan></text></g></g><g class="edgeLabel" transform="translate(204.01171875,984)" style="opacity: 1;"><g transform="translate(-49.1484375,-22)" class="label"><text><tspan xml:space="preserve" dy="1em" x="1">containerboard,</tspan><tspan xml:space="preserve" dy="1em" x="1">fluting medium</tspan><tspan xml:space="preserve" dy="1em" x="1">(21.8%)</tspan></text></g></g><g class="edgeLabel" transform="translate(107.0234375,788)" style="opacity: 1;"><g transform="translate(-39.7890625,-15)" class="label"><text><tspan xml:space="preserve" dy="1em" x="1">maize starch</tspan><tspan xml:space="preserve" dy="1em" x="1">(7.94%)</tspan></text></g></g><g class="edgeLabel" transform="translate(283.0703125,788)" style="opacity: 1;"><g transform="translate(-40.578125,-15)" class="label"><text><tspan xml:space="preserve" dy="1em" x="1">potato starch</tspan><tspan xml:space="preserve" dy="1em" x="1">(10.1%)</tspan></text></g></g><g class="edgeLabel" transform="translate(481.734375,788)" style="opacity: 1;"><g transform="translate(-58.109375,-22)" class="label"><text><tspan xml:space="preserve" dy="1em" x="1">electricity, medium</tspan><tspan xml:space="preserve" dy="1em" x="1">voltage</tspan><tspan xml:space="preserve" dy="1em" x="1">(0.622%)</tspan></text></g></g><g class="edgeLabel" transform="translate(283.0703125,599)" style="opacity: 1;"><g transform="translate(-40.578125,-15)" class="label"><text><tspan xml:space="preserve" dy="1em" x="1">potato starch</tspan><tspan xml:space="preserve" dy="1em" x="1">(20.9%)</tspan></text></g></g><g class="edgeLabel" transform="translate(207.0625,438)" style="opacity: 1;"><g transform="translate(-58.109375,-22)" class="label"><text><tspan xml:space="preserve" dy="1em" x="1">electricity, medium</tspan><tspan xml:space="preserve" dy="1em" x="1">voltage</tspan><tspan xml:space="preserve" dy="1em" x="1">(0.00321%)</tspan></text></g></g><g class="edgeLabel" transform="translate(360.7109375,438)" style="opacity: 1;"><g transform="translate(-24.6796875,-15)" class="label"><text><tspan xml:space="preserve" dy="1em" x="1">potato</tspan><tspan xml:space="preserve" dy="1em" x="1">(20.8%)</tspan></text></g></g><g class="edgeLabel" transform="translate(271.5078125,263)" style="opacity: 1;"><g transform="translate(-24.6796875,-15)" class="label"><text><tspan xml:space="preserve" dy="1em" x="1">potato</tspan><tspan xml:space="preserve" dy="1em" x="1">(3.46%)</tspan></text></g></g><g class="edgeLabel" transform="translate(449.9140625,263)" style="opacity: 1;"><g transform="translate(-24.6796875,-15)" class="label"><text><tspan xml:space="preserve" dy="1em" x="1">potato</tspan><tspan xml:space="preserve" dy="1em" x="1">(12.0%)</tspan></text></g></g><g class="edgeLabel" transform="translate(1530.3046875,1530)" style="opacity: 1;"><g transform="translate(-72.46875,-15)" class="label"><text><tspan xml:space="preserve" dy="1em" x="1">Fibreboard Mix Bavaria</tspan><tspan xml:space="preserve" dy="1em" x="1">(3.83%)</tspan></text></g></g><g class="edgeLabel" transform="translate(1746.0390625,1530)" style="opacity: 1;"><g transform="translate(-72.8671875,-15)" class="label"><text><tspan xml:space="preserve" dy="1em" x="1">Sawnwood Mix Bavaria</tspan><tspan xml:space="preserve" dy="1em" x="1">(4.51%)</tspan></text></g></g><g class="edgeLabel" transform="translate(1950.1015625,1530)" style="opacity: 1;"><g transform="translate(-67.03125,-15)" class="label"><text><tspan xml:space="preserve" dy="1em" x="1">Particleboard Bavaria</tspan><tspan xml:space="preserve" dy="1em" x="1">(9.21%)</tspan></text></g></g><g class="edgeLabel" transform="translate(1282.96875,1348)" style="opacity: 1;"><g transform="translate(-39.3046875,-15)" class="label"><text><tspan xml:space="preserve" dy="1em" x="1">tissue paper</tspan><tspan xml:space="preserve" dy="1em" x="1">(12.2%)</tspan></text></g></g><g class="edgeLabel" transform="translate(1173.66796875,1166)" style="opacity: 1;"><g transform="translate(-39.3046875,-15)" class="label"><text><tspan xml:space="preserve" dy="1em" x="1">tissue paper</tspan><tspan xml:space="preserve" dy="1em" x="1">(3.01%)</tspan></text></g></g><g class="edgeLabel" transform="translate(1392.26953125,1166)" style="opacity: 1;"><g transform="translate(-39.3046875,-15)" class="label"><text><tspan xml:space="preserve" dy="1em" x="1">tissue paper</tspan><tspan xml:space="preserve" dy="1em" x="1">(8.11%)</tspan></text></g></g><g class="edgeLabel" transform="translate(457.703125,109)" style="opacity: 1;"><g transform="translate(-32.46875,-15)" class="label"><text><tspan xml:space="preserve" dy="1em" x="1">urea</tspan><tspan xml:space="preserve" dy="1em" x="1">(0.0124%)</tspan></text></g></g></g><g class="nodes"><g class="node demand" id="09f0b23a200b4a8d8b0fca813721a5aa" transform="translate(1755.80078125,1803)" style="opacity: 1;"><rect rx="0" ry="0" x="-90.4921875" y="-39" width="180.984375" height="78" style="fill: rgb(255, 255, 255);"/><g class="label" transform="translate(0,0)"><g transform="translate(-80.4921875,-29)"><text><tspan xml:space="preserve" dy="1em" x="1">0 Wood Based Products</tspan><tspan xml:space="preserve" dy="1em" x="1">Total</tspan><tspan xml:space="preserve" dy="1em" x="1">DE</tspan><tspan xml:space="preserve" dy="1em" x="1">(0%)</tspan></text></g></g></g><g class="node production" id="efec900e3558434abde7d3ee68e11d55" transform="translate(725.82421875,1621)" style="opacity: 1;"><rect rx="0" ry="0" x="-74.984375" y="-39" width="149.96875" height="78" style="fill: rgb(255, 255, 255);"/><g class="label" transform="translate(0,0)"><g transform="translate(-64.984375,-29)"><text><tspan xml:space="preserve" dy="1em" x="1">Paper Products Total</tspan><tspan xml:space="preserve" dy="1em" x="1">2.1</tspan><tspan xml:space="preserve" dy="1em" x="1">DE</tspan><tspan xml:space="preserve" dy="1em" x="1">(0%)</tspan></text></g></g></g><g class="node production" id="511f4df88e8746c28eba4ba9a6089b0f" transform="translate(1665.7578125,1621)" style="opacity: 1;"><rect rx="0" ry="0" x="-74.9609375" y="-32" width="149.921875" height="64" style="fill: rgb(255, 255, 255);"/><g class="label" transform="translate(0,0)"><g transform="translate(-64.9609375,-22)"><text><tspan xml:space="preserve" dy="1em" x="1">Wood Products Total</tspan><tspan xml:space="preserve" dy="1em" x="1">DE</tspan><tspan xml:space="preserve" dy="1em" x="1">(0%)</tspan></text></g></g></g><g class="node production" id="5bc8cb7fa3604fd78f2611f413afc526" transform="translate(1880.484375,1621)" style="opacity: 1;"><rect rx="0" ry="0" x="-89.765625" y="-39" width="179.53125" height="78" style="fill: rgb(255, 255, 255);"/><g class="label" transform="translate(0,0)"><g transform="translate(-79.765625,-29)"><text><tspan xml:space="preserve" dy="1em" x="1">Power and Heat Products</tspan><tspan xml:space="preserve" dy="1em" x="1">Total</tspan><tspan xml:space="preserve" dy="1em" x="1">DE</tspan><tspan xml:space="preserve" dy="1em" x="1">(0%)</tspan></text></g></g></g><g class="node production" id="7815b9dfcfce45c786da527b3953f686" transform="translate(149.86328125,1439)" style="opacity: 1;"><rect rx="0" ry="0" x="-81.6953125" y="-32" width="163.390625" height="64" style="fill: rgb(255, 255, 255);"/><g class="label" transform="translate(0,0)"><g transform="translate(-71.6953125,-22)"><text><tspan xml:space="preserve" dy="1em" x="1">Cardboard Mix Bavaria</tspan><tspan xml:space="preserve" dy="1em" x="1">DE</tspan><tspan xml:space="preserve" dy="1em" x="1">(0%)</tspan></text></g></g></g><g class="node production" id="9bbb0481faa8422a97e2ee992f1a050e" transform="translate(606.015625,1439)" style="opacity: 1;"><rect rx="0" ry="0" x="-61.2578125" y="-39" width="122.515625" height="78" style="fill: rgb(255, 255, 255);"/><g class="label" transform="translate(0,0)"><g transform="translate(-51.2578125,-29)"><text><tspan xml:space="preserve" dy="1em" x="1">Graphical Paper</tspan><tspan xml:space="preserve" dy="1em" x="1">Mix Bavaria</tspan><tspan xml:space="preserve" dy="1em" x="1">DE</tspan><tspan xml:space="preserve" dy="1em" x="1">(0%)</tspan></text></g></g></g><g class="node production" id="9de0f70052524cdcb79ae0126683ffe2" transform="translate(1238.6640625,1439)" style="opacity: 1;"><rect rx="0" ry="0" x="-81.703125" y="-32" width="163.40625" height="64" style="fill: rgb(255, 255, 255);"/><g class="label" transform="translate(0,0)"><g transform="translate(-71.703125,-22)"><text><tspan xml:space="preserve" dy="1em" x="1">Hygenic Paper Bavaria</tspan><tspan xml:space="preserve" dy="1em" x="1">DE</tspan><tspan xml:space="preserve" dy="1em" x="1">(0%)</tspan></text></g></g></g><g class="node production" id="54f1d7f706a4452dba66d8209a76215e" transform="translate(606.015625,1257)" style="opacity: 1;"><rect rx="0" ry="0" x="-61.2578125" y="-39" width="122.515625" height="78" style="fill: rgb(255, 255, 255);"/><g class="label" transform="translate(0,0)"><g transform="translate(-51.2578125,-29)"><text><tspan xml:space="preserve" dy="1em" x="1">Graphical Paper</tspan><tspan xml:space="preserve" dy="1em" x="1">Mix</tspan><tspan xml:space="preserve" dy="1em" x="1">DE</tspan><tspan xml:space="preserve" dy="1em" x="1">(0%)</tspan></text></g></g></g><g class="node market" id="489fbe5a1299973271f08df81a9f63bc_copy1" transform="translate(364.56640625,1075)" style="opacity: 1;"><rect rx="0" ry="0" x="-72.1015625" y="-39" width="144.203125" height="78" style="fill: rgb(255, 255, 255);"/><g class="label" transform="translate(0,0)"><g transform="translate(-62.1015625,-29)"><text><tspan xml:space="preserve" dy="1em" x="1">market for paper,</tspan><tspan xml:space="preserve" dy="1em" x="1">woodfree, uncoated</tspan><tspan xml:space="preserve" dy="1em" x="1">DE</tspan><tspan xml:space="preserve" dy="1em" x="1">(0%)</tspan></text></g></g></g><g class="node market" id="ae706a433f8202bc8badc8dba63c982e_copy1" transform="translate(549.58203125,1075)" style="opacity: 1;"><rect rx="0" ry="0" x="-62.9140625" y="-39" width="125.828125" height="78" style="fill: rgb(255, 255, 255);"/><g class="label" transform="translate(0,0)"><g transform="translate(-52.9140625,-29)"><text><tspan xml:space="preserve" dy="1em" x="1">market for paper,</tspan><tspan xml:space="preserve" dy="1em" x="1">newsprint</tspan><tspan xml:space="preserve" dy="1em" x="1">DE</tspan><tspan xml:space="preserve" dy="1em" x="1">(0%)</tspan></text></g></g></g><g class="node market" id="39ff41216f852817bcd68bfc95d61acd_copy1" transform="translate(726.80859375,1075)" style="opacity: 1;"><rect rx="0" ry="0" x="-64.3125" y="-39" width="128.625" height="78" style="fill: rgb(255, 255, 255);"/><g class="label" transform="translate(0,0)"><g transform="translate(-54.3125,-29)"><text><tspan xml:space="preserve" dy="1em" x="1">market for paper,</tspan><tspan xml:space="preserve" dy="1em" x="1">woodfree, coated</tspan><tspan xml:space="preserve" dy="1em" x="1">DE</tspan><tspan xml:space="preserve" dy="1em" x="1">(0%)</tspan></text></g></g></g><g class="node market" id="20c34a745da0dfde20ce5120bcf7dd03_copy1" transform="translate(918.55078125,1075)" style="opacity: 1;"><rect rx="0" ry="0" x="-77.4296875" y="-39" width="154.859375" height="78" style="fill: rgb(255, 255, 255);"/><g class="label" transform="translate(0,0)"><g transform="translate(-67.4296875,-29)"><text><tspan xml:space="preserve" dy="1em" x="1">market for graphic</tspan><tspan xml:space="preserve" dy="1em" x="1">paper, 100% recycled</tspan><tspan xml:space="preserve" dy="1em" x="1">DE</tspan><tspan xml:space="preserve" dy="1em" x="1">(0%)</tspan></text></g></g></g><g class="node production" id="af4ea45bbff64990a4db9b3a67194c31" transform="translate(149.86328125,1257)" style="opacity: 1;"><rect rx="0" ry="0" x="-56.4140625" y="-32" width="112.828125" height="64" style="fill: rgb(255, 255, 255);"/><g class="label" transform="translate(0,0)"><g transform="translate(-46.4140625,-22)"><text><tspan xml:space="preserve" dy="1em" x="1">Cardboard Mix</tspan><tspan xml:space="preserve" dy="1em" x="1">DE</tspan><tspan xml:space="preserve" dy="1em" x="1">(0%)</tspan></text></g></g></g><g class="node market" id="647f327fc12cbbdd9e049793ec37e068_copy1" transform="translate(149.86328125,1075)" style="opacity: 1;"><rect rx="0" ry="0" x="-92.6015625" y="-39" width="185.203125" height="78" style="fill: rgb(255, 255, 255);"/><g class="label" transform="translate(0,0)"><g transform="translate(-82.6015625,-29)"><text><tspan xml:space="preserve" dy="1em" x="1">market for containerboard,</tspan><tspan xml:space="preserve" dy="1em" x="1">fluting medium</tspan><tspan xml:space="preserve" dy="1em" x="1">DE</tspan><tspan xml:space="preserve" dy="1em" x="1">(0%)</tspan></text></g></g></g><g class="node production" id="3c81d7a6f2ef7938163dbd6ee07b2dc3" transform="translate(149.86328125,886)" style="opacity: 1;"><rect rx="0" ry="0" x="-93.78125" y="-46" width="187.5625" height="92" style="fill: rgb(255, 252, 252);"/><g class="label" transform="translate(0,0)"><g transform="translate(-83.78125,-36)"><text><tspan xml:space="preserve" dy="1em" x="1">containerboard production,</tspan><tspan xml:space="preserve" dy="1em" x="1">fluting medium,</tspan><tspan xml:space="preserve" dy="1em" x="1">recycled</tspan><tspan xml:space="preserve" dy="1em" x="1">DE</tspan><tspan xml:space="preserve" dy="1em" x="1">(1%)</tspan></text></g></g></g><g class="node market" id="a44812cf30b7ee87658605fe10086c35" transform="translate(62.234375,690)" style="opacity: 1;"><rect rx="0" ry="0" x="-62.234375" y="-39" width="124.46875" height="78" style="fill: rgb(255, 255, 255);"/><g class="label" transform="translate(0,0)"><g transform="translate(-52.234375,-29)"><text><tspan xml:space="preserve" dy="1em" x="1">market for maize</tspan><tspan xml:space="preserve" dy="1em" x="1">starch</tspan><tspan xml:space="preserve" dy="1em" x="1">DE</tspan><tspan xml:space="preserve" dy="1em" x="1">(0%)</tspan></text></g></g></g><g class="node market" id="8ce68e5f71f8f8c5dc50edb913e9cea1" transform="translate(237.4921875,690)" style="opacity: 1;"><rect rx="0" ry="0" x="-63.0234375" y="-39" width="126.046875" height="78" style="fill: rgb(255, 255, 255);"/><g class="label" transform="translate(0,0)"><g transform="translate(-53.0234375,-29)"><text><tspan xml:space="preserve" dy="1em" x="1">market for potato</tspan><tspan xml:space="preserve" dy="1em" x="1">starch</tspan><tspan xml:space="preserve" dy="1em" x="1">DE</tspan><tspan xml:space="preserve" dy="1em" x="1">(0%)</tspan></text></g></g></g><g class="node marketgroup" id="0c02fccd63475e8f7e6b9627f34c00bc" transform="translate(418.625,690)" style="opacity: 1;"><rect rx="0" ry="0" x="-68.109375" y="-46" width="136.21875" height="92" style="fill: rgb(255, 255, 255);"/><g class="label" transform="translate(0,0)"><g transform="translate(-58.109375,-36)"><text><tspan xml:space="preserve" dy="1em" x="1">market group for</tspan><tspan xml:space="preserve" dy="1em" x="1">electricity, medium</tspan><tspan xml:space="preserve" dy="1em" x="1">voltage</tspan><tspan xml:space="preserve" dy="1em" x="1">DE</tspan><tspan xml:space="preserve" dy="1em" x="1">(0%)</tspan></text></g></g></g><g class="node production" id="644923cf3b800f04a203420c1b8902a1" transform="translate(237.4921875,522)" style="opacity: 1;"><rect rx="0" ry="0" x="-85.2109375" y="-32" width="170.421875" height="64" style="fill: rgb(255, 255, 255);"/><g class="label" transform="translate(0,0)"><g transform="translate(-75.2109375,-22)"><text><tspan xml:space="preserve" dy="1em" x="1">potato starch production</tspan><tspan xml:space="preserve" dy="1em" x="1">DE</tspan><tspan xml:space="preserve" dy="1em" x="1">(0%)</tspan></text></g></g></g><g class="node market" id="6287db0c56830869ff2451fb1aa0f5f3" transform="translate(143.953125,347)" style="opacity: 1;"><rect rx="0" ry="0" x="-74.0546875" y="-39" width="148.109375" height="78" style="fill: rgb(255, 255, 255);"/><g class="label" transform="translate(0,0)"><g transform="translate(-64.0546875,-29)"><text><tspan xml:space="preserve" dy="1em" x="1">market for electricity,</tspan><tspan xml:space="preserve" dy="1em" x="1">medium voltage</tspan><tspan xml:space="preserve" dy="1em" x="1">DE</tspan><tspan xml:space="preserve" dy="1em" x="1">(0%)</tspan></text></g></g></g><g class="node market" id="b9a9237cc25ac3cfe4585e3135427e1f" transform="translate(331.03125,347)" style="opacity: 1;"><rect rx="0" ry="0" x="-63.0234375" y="-32" width="126.046875" height="64" style="fill: rgb(255, 255, 255);"/><g class="label" transform="translate(0,0)"><g transform="translate(-53.0234375,-22)"><text><tspan xml:space="preserve" dy="1em" x="1">market for potato</tspan><tspan xml:space="preserve" dy="1em" x="1">DE</tspan><tspan xml:space="preserve" dy="1em" x="1">(0%)</tspan></text></g></g></g><g class="node production" id="85c49777137a2a9435c8bde0aa2520cf" transform="translate(241.828125,186)" style="opacity: 1;"><rect rx="0" ry="0" x="-64.203125" y="-32" width="128.40625" height="64" style="fill: rgb(255, 247, 247);"/><g class="label" transform="translate(0,0)"><g transform="translate(-54.203125,-22)"><text><tspan xml:space="preserve" dy="1em" x="1">potato production</tspan><tspan xml:space="preserve" dy="1em" x="1">DE</tspan><tspan xml:space="preserve" dy="1em" x="1">(3%)</tspan></text></g></g></g><g class="node production" id="7de313c370a882305ee36194901185a2" transform="translate(420.234375,186)" style="opacity: 1;"><rect rx="0" ry="0" x="-64.203125" y="-32" width="128.40625" height="64" style="fill: rgb(255, 225, 225);"/><g class="label" transform="translate(0,0)"><g transform="translate(-54.203125,-22)"><text><tspan xml:space="preserve" dy="1em" x="1">potato production</tspan><tspan xml:space="preserve" dy="1em" x="1">DE</tspan><tspan xml:space="preserve" dy="1em" x="1">(12%)</tspan></text></g></g></g><g class="node production" id="e9223e9502c64418a01513fcb135510f" transform="translate(1452.8359375,1439)" style="opacity: 1;"><rect rx="0" ry="0" x="-82.46875" y="-32" width="164.9375" height="64" style="fill: rgb(255, 255, 255);"/><g class="label" transform="translate(0,0)"><g transform="translate(-72.46875,-22)"><text><tspan xml:space="preserve" dy="1em" x="1">Fibreboard Mix Bavaria</tspan><tspan xml:space="preserve" dy="1em" x="1">DE</tspan><tspan xml:space="preserve" dy="1em" x="1">(0%)</tspan></text></g></g></g><g class="node production" id="b2fe05cc140e46d295f7f8f64470f0c6" transform="translate(1668.171875,1439)" style="opacity: 1;"><rect rx="0" ry="0" x="-82.8671875" y="-32" width="165.734375" height="64" style="fill: rgb(255, 255, 255);"/><g class="label" transform="translate(0,0)"><g transform="translate(-72.8671875,-22)"><text><tspan xml:space="preserve" dy="1em" x="1">Sawnwood Mix Bavaria</tspan><tspan xml:space="preserve" dy="1em" x="1">DE</tspan><tspan xml:space="preserve" dy="1em" x="1">(0%)</tspan></text></g></g></g><g class="node production" id="68a7ef038a01426d8efa5a28cb3cd93d" transform="translate(1878.0703125,1439)" style="opacity: 1;"><rect rx="0" ry="0" x="-77.03125" y="-32" width="154.0625" height="64" style="fill: rgb(255, 255, 255);"/><g class="label" transform="translate(0,0)"><g transform="translate(-67.03125,-22)"><text><tspan xml:space="preserve" dy="1em" x="1">Particleboard Bavaria</tspan><tspan xml:space="preserve" dy="1em" x="1">DE</tspan><tspan xml:space="preserve" dy="1em" x="1">(0%)</tspan></text></g></g></g><g class="node market" id="9699e53f1f24d1cc891b2a30bde7a709_copy1" transform="translate(1238.6640625,1257)" style="opacity: 1;"><rect rx="0" ry="0" x="-61.8515625" y="-39" width="123.703125" height="78" style="fill: rgb(255, 255, 255);"/><g class="label" transform="translate(0,0)"><g transform="translate(-51.8515625,-29)"><text><tspan xml:space="preserve" dy="1em" x="1">market for tissue</tspan><tspan xml:space="preserve" dy="1em" x="1">paper</tspan><tspan xml:space="preserve" dy="1em" x="1">DE</tspan><tspan xml:space="preserve" dy="1em" x="1">(0%)</tspan></text></g></g></g><g class="node production" id="109b5c830e8e47933f915bcc9aaba7ea" transform="translate(1129.36328125,1075)" style="opacity: 1;"><rect rx="0" ry="0" x="-83.3828125" y="-32" width="166.765625" height="64" style="fill: rgb(255, 255, 255);"/><g class="label" transform="translate(0,0)"><g transform="translate(-73.3828125,-22)"><text><tspan xml:space="preserve" dy="1em" x="1">tissue paper production</tspan><tspan xml:space="preserve" dy="1em" x="1">DE</tspan><tspan xml:space="preserve" dy="1em" x="1">(0%)</tspan></text></g></g></g><g class="node production" id="bbc6c65d7f726556fca8e9e1eaad3694" transform="translate(1347.96484375,1075)" style="opacity: 1;"><rect rx="0" ry="0" x="-85.21875" y="-39" width="170.4375" height="78" style="fill: rgb(255, 255, 255);"/><g class="label" transform="translate(0,0)"><g transform="translate(-75.21875,-29)"><text><tspan xml:space="preserve" dy="1em" x="1">tissue paper production,</tspan><tspan xml:space="preserve" dy="1em" x="1">virgin</tspan><tspan xml:space="preserve" dy="1em" x="1">DE</tspan><tspan xml:space="preserve" dy="1em" x="1">(0%)</tspan></text></g></g></g><g class="node market" id="4b5c91c6fff2bd2072e6a29f84085e4b" transform="translate(420.234375,32)" style="opacity: 1;"><rect rx="0" ry="0" x="-57.5703125" y="-32" width="115.140625" height="64" style="fill: rgb(255, 255, 255);"/><g class="label" transform="translate(0,0)"><g transform="translate(-47.5703125,-22)"><text><tspan xml:space="preserve" dy="1em" x="1">market for urea</tspan><tspan xml:space="preserve" dy="1em" x="1">DE</tspan><tspan xml:space="preserve" dy="1em" x="1">(0%)</tspan></text></g></g></g></g></g></g></g></svg>